<?xml version="1.0" encoding="utf-8"?>
<svg width="81px" height="81px" viewBox="0 0 81 81" version="1.1" xmlns:xlink="http://www.w3.org/1999/xlink" xmlns="http://www.w3.org/2000/svg">
  <g id="Groupes">
    <path d="M74.9639 40.5C74.9639 40.5 81 40.5 81 40.5C81 62.8675 62.8675 81 40.5 81C18.1325 81 0 62.8675 0 40.5C0 18.1325 18.1325 0 40.5 0C62.8675 0 81 18.1325 81 40.5C81 40.5 74.9639 40.5 74.9639 40.5C74.9639 21.4661 59.5339 6.03609 40.5 6.03609C21.4661 6.03609 6.03609 21.4661 6.03609 40.5C6.03609 59.5339 21.4661 74.9639 40.5 74.9639C59.5339 74.9639 74.9639 59.5339 74.9639 40.5Z" id="Ovale" fill="#0132FB" fill-rule="evenodd" stroke="none" />
    <path d="M10 40.9178C10 24.3492 23.4315 10.9178 40 10.9178C56.5685 10.9178 70 24.3492 70 40.9178C70 57.4863 56.5685 70.9178 40 70.9178C23.4315 70.9178 10 57.4863 10 40.9178Z" id="Ovale-2" fill="#0132FB" fill-rule="evenodd" stroke="none" />
  </g>
</svg>