<?xml version="1.0" encoding="utf-8"?>
<svg width="1326px" height="708.36px" viewBox="0 0 1326 708.36" version="1.1" xmlns:xlink="http://www.w3.org/1999/xlink" xmlns="http://www.w3.org/2000/svg">
  <defs>
    <linearGradient gradientUnits="objectBoundingBox" x1="1.8944981" y1="-1.4297423" x2="0.49377644" y2="0.784987" id="gradient_1">
      <stop offset="0%" stop-color="#0132FB" />
      <stop offset="100%" stop-color="#7734E7" />
    </linearGradient>
    <filter filterUnits="userSpaceOnUse" color-interpolation-filters="sRGB" id="filter_1">
      <feFlood flood-opacity="0" result="BackgroundImageFix" />
      <feBlend mode="normal" in="SourceGraphic" in2="BackgroundImageFix" result="shape" />
      <feColorMatrix in="SourceAlpha" type="matrix" values="0 0 0 0 0 0 0 0 0 0 0 0 0 0 0 0 0 0 128 0" result="hardAlpha" />
      <feOffset dx="1" dy="7" />
      <feGaussianBlur stdDeviation="5" />
      <feComposite in2="hardAlpha" operator="arithmetic" k2="-1" k3="1" />
      <feColorMatrix type="matrix" values="0 0 0 0 1 0 0 0 0 1 0 0 0 0 1 0 0 0 0.49803922 0" />
      <feBlend mode="normal" in2="shape" result="effect0_innerShadow" />
    </filter>
    <path d="M1326 0L1326 0L1326 708.36L0 708.36L0 0L1326 0Z" id="path_1" />
    <path d="M1181.26 0L1181.26 0L1181.26 462L0 462L0 0L1181.26 0Z" id="path_2" />
    <path d="M994.221 372.973C994.221 372.973 993.275 362.164 993.275 362.164C1019.79 359.844 1043.17 379.372 1045.48 405.781C1047.79 432.189 1028.16 455.479 1001.64 457.799C975.122 460.119 951.751 440.591 949.44 414.183C947.13 387.774 966.755 364.484 993.275 362.164C993.275 362.164 994.221 372.973 994.221 372.973C973.696 374.769 958.507 392.794 960.295 413.233C962.083 433.672 980.171 448.786 1000.7 446.99C1021.22 445.194 1036.41 427.169 1034.62 406.73C1032.83 386.291 1014.75 371.177 994.221 372.973Z" id="path_3" />
    <path d="M566.647 200.288C566.647 200.288 564.302 173.491 564.302 173.491C630.049 167.738 687.991 216.151 693.719 281.623C699.447 347.094 650.792 404.833 585.045 410.585C519.298 416.337 461.357 367.925 455.628 302.453C449.9 236.981 498.555 179.243 564.302 173.491C564.302 173.491 566.647 200.288 566.647 200.288C515.762 204.739 478.105 249.426 482.538 300.099C486.971 350.771 531.816 388.24 582.701 383.788C633.586 379.336 671.243 334.649 666.809 283.977C662.376 233.305 617.532 195.836 566.647 200.288Z" id="path_4" />
    <path d="M203.244 74.6608C203.244 74.6608 201.934 59.6859 201.934 59.6859C238.674 56.4715 271.054 83.5255 274.255 120.113C277.456 156.7 250.266 188.965 213.525 192.18C176.784 195.394 144.405 168.34 141.204 131.753C138.003 95.1659 165.193 62.9003 201.934 59.6859C201.934 59.6859 203.244 74.6608 203.244 74.6608C174.808 77.1486 153.765 102.121 156.242 130.437C158.719 158.754 183.779 179.693 212.215 177.205C240.651 174.717 261.694 149.745 259.217 121.428C256.74 93.1115 231.68 72.1729 203.244 74.6608Z" id="path_5" />
    <clipPath id="clip_1">
      <use xlink:href="#path_1" clip-rule="evenodd" fill-rule="evenodd" />
    </clipPath>
    <clipPath id="clip_2">
      <use xlink:href="#path_2" clip-rule="evenodd" fill-rule="evenodd" />
    </clipPath>
  </defs>
  <g id="competence" clip-path="url(#clip_1)">
    <path d="M1326 0L1326 0L1326 708.36L0 708.36L0 0L1326 0Z" id="competence" fill="#FFFFFF" stroke="none" />
    <path d="M-309.554 0L88.4561 0L88.4562 0L1326 0L1326 708L-309.554 708L-309.554 0Z" id="Rectangle" fill="url(#gradient_1)" fill-rule="evenodd" stroke="none" />
    <path d="M-52.5 -42.5019L-98 -12.0016C-98 -12.0016 -10.9993 -271.003 -10.9993 -271.003C-7.03983 -273.771 -130.453 44.5582 -38 17.3916C54.4531 -9.77521 51.1298 10.235 138.5 9.80148C301.914 -2.24539 269.754 12.6416 353.5 17.3918C437.246 22.142 487.318 8.72165 542.595 4.12009C607.748 -1.09824 691.321 13.7886 771.03 17.3918C852.996 19.3269 901.707 1.21069 971.001 9.80148C1124.54 43.1206 1165.78 4.91388 1239.5 17.3918C1308.41 25.0472 1328.63 -4.04025 1372.77 27C1416.91 58.0382 1354.14 215.104 1360.43 202.3C1361.73 199.65 1363.01 23.2016 1372.77 9.80145L1383.01 -10.0357L650.539 -11.8047C650.539 -11.8047 814.18 -12.2477 659.049 -11.8047C503.909 -11.3632 -10.9992 -22.5888 -10.9992 -22.5888L-52.5 -42.5019Z" id="Vecteur" fill="#FAFAFB" fill-rule="evenodd" stroke="none" />
    <g id="Cadre" clip-path="url(#clip_2)" transform="translate(0 128)">
      <path d="M1181.26 0L1181.26 0L1181.26 462L0 462L0 0L1181.26 0Z" id="Cadre" fill="none" stroke="none" />
      <g id="Ovale-Copier-5">
        <use stroke="none" fill="#7734E7" xlink:href="#path_3" fill-rule="evenodd" filter="url(#filter_1)" />
      </g>
      <path d="M836.601 304.342L834.518 311.886L829.316 307.202L836.601 304.342L836.601 304.342Z" id="Triangle-Copier" fill="#000000" fill-rule="evenodd" stroke="none" />
      <path d="M546.855 187.968L542.773 194.646L539.064 188.709L546.855 187.968L546.855 187.968Z" id="Triangle-Copier-Copier" fill="#0132FB" fill-rule="evenodd" stroke="none" />
      <path d="M58.6713 174.668L62 177.086L60.7286 181L56.614 181L55.3426 177.086L58.6713 174.668L58.6713 174.668Z" id="Polygone" fill="#CCCCCC" fill-rule="evenodd" stroke="none" />
      <path d="M847.742 -102L840.668 -102L840.668 -95L847.742 -95L847.742 -102L847.742 -102Z" id="Rectangle-2" fill="#EEEEEE" fill-rule="evenodd" stroke="none" />
      <path d="M373.822 295.698L378 302.335L381.644 296.27L373.822 295.698L373.822 295.698Z" id="Triangle-Copier-2" fill="#FFFFFF" fill-rule="evenodd" stroke="none" />
      <path d="M949.63 46.668L946.27 49.086L947.55 53L951.71 53L953 49.086L949.63 46.668L949.63 46.668Z" id="Polygone-Copier-2" fill="#FFFFFF" fill-rule="evenodd" stroke="none" />
    </g>
    <g id="Ovale-Copier-3">
      <use stroke="none" fill="#7734E7" xlink:href="#path_4" fill-rule="evenodd" filter="url(#filter_1)" />
    </g>
    <path d="M29.671 54.668L33 57.086L31.728 61L27.614 61L26.342 57.086L29.671 54.668L29.671 54.668Z" id="Polygone-Copier" fill="#000000" fill-rule="evenodd" stroke="none" />
    <path d="M1122.01 39.0407L1122.38 39.7829Q1122.41 39.8526 1122.46 39.912Q1122.51 39.9714 1122.58 40.0171Q1122.64 40.0628 1122.71 40.0921Q1122.78 40.1214 1122.86 40.1325L1123.68 40.2516Q1123.72 40.2573 1123.76 40.2684Q1123.8 40.2796 1123.83 40.2959Q1123.87 40.3123 1123.9 40.3335Q1123.94 40.3548 1123.97 40.3805Q1124 40.4062 1124.02 40.4359Q1124.05 40.4655 1124.07 40.4986Q1124.1 40.5317 1124.11 40.5676Q1124.13 40.6034 1124.14 40.6414Q1124.16 40.6793 1124.16 40.7186Q1124.17 40.7579 1124.17 40.7977Q1124.17 40.8376 1124.17 40.8772Q1124.16 40.9169 1124.15 40.9556Q1124.14 40.9943 1124.13 41.0314Q1124.11 41.0684 1124.09 41.103Q1124.08 41.1376 1124.05 41.1691Q1124.03 41.2007 1124 41.2285L1123.41 41.8062Q1123.35 41.8605 1123.31 41.9265Q1123.27 41.9925 1123.24 42.0664Q1123.22 42.1403 1123.21 42.2179Q1123.21 42.2954 1123.22 42.372L1123.36 43.1877Q1123.37 43.227 1123.37 43.2669Q1123.37 43.3068 1123.37 43.3464Q1123.36 43.3861 1123.35 43.4247Q1123.34 43.4634 1123.33 43.5004Q1123.31 43.5373 1123.29 43.5718Q1123.27 43.6063 1123.25 43.6377Q1123.22 43.6691 1123.19 43.6968Q1123.17 43.7245 1123.13 43.7479Q1123.1 43.7714 1123.07 43.7901Q1123.03 43.8089 1122.99 43.8225Q1122.96 43.8362 1122.92 43.8446Q1122.88 43.8529 1122.84 43.8558Q1122.8 43.8587 1122.76 43.856Q1122.72 43.8534 1122.68 43.8452Q1122.64 43.8371 1122.6 43.8236Q1122.57 43.8101 1122.53 43.7915L1121.8 43.4064Q1121.73 43.3702 1121.65 43.3516Q1121.58 43.333 1121.5 43.333Q1121.42 43.333 1121.35 43.3516Q1121.27 43.3702 1121.2 43.4064L1120.47 43.7915Q1120.43 43.8101 1120.4 43.8236Q1120.36 43.8371 1120.32 43.8452Q1120.28 43.8534 1120.24 43.856Q1120.2 43.8587 1120.16 43.8558Q1120.12 43.8529 1120.08 43.8446Q1120.04 43.8362 1120.01 43.8225Q1119.97 43.8089 1119.93 43.7901Q1119.9 43.7714 1119.87 43.7479Q1119.83 43.7245 1119.81 43.6968Q1119.78 43.6691 1119.75 43.6377Q1119.73 43.6063 1119.71 43.5718Q1119.69 43.5373 1119.67 43.5004Q1119.66 43.4634 1119.65 43.4247Q1119.64 43.3861 1119.63 43.3464Q1119.63 43.3068 1119.63 43.2669Q1119.63 43.227 1119.64 43.1877L1119.78 42.372Q1119.79 42.2954 1119.79 42.2179Q1119.78 42.1403 1119.76 42.0664Q1119.73 41.9925 1119.69 41.9265Q1119.65 41.8605 1119.59 41.8062L1119 41.2285Q1118.97 41.2007 1118.95 41.1691Q1118.92 41.1376 1118.91 41.103Q1118.89 41.0684 1118.87 41.0314Q1118.86 40.9943 1118.85 40.9556Q1118.84 40.9169 1118.83 40.8772Q1118.83 40.8376 1118.83 40.7977Q1118.83 40.7578 1118.84 40.7186Q1118.85 40.6793 1118.86 40.6414Q1118.87 40.6034 1118.89 40.5676Q1118.9 40.5317 1118.93 40.4986Q1118.95 40.4655 1118.98 40.4359Q1119 40.4062 1119.03 40.3805Q1119.06 40.3548 1119.1 40.3335Q1119.13 40.3123 1119.17 40.2959Q1119.2 40.2796 1119.24 40.2684Q1119.28 40.2573 1119.32 40.2516L1120.14 40.1325Q1120.22 40.1214 1120.29 40.0921Q1120.36 40.0628 1120.42 40.0171Q1120.49 39.9714 1120.54 39.912Q1120.59 39.8526 1120.62 39.7829L1120.99 39.0407Q1121 39.0049 1121.03 38.972Q1121.05 38.939 1121.08 38.9094Q1121.1 38.8799 1121.13 38.8543Q1121.16 38.8288 1121.2 38.8077Q1121.23 38.7867 1121.27 38.7705Q1121.3 38.7544 1121.34 38.7434Q1121.38 38.7325 1121.42 38.7269Q1121.46 38.7214 1121.5 38.7214Q1121.54 38.7214 1121.58 38.7269Q1121.62 38.7325 1121.66 38.7434Q1121.7 38.7544 1121.73 38.7705Q1121.77 38.7867 1121.8 38.8077Q1121.84 38.8288 1121.87 38.8543Q1121.9 38.8799 1121.92 38.9094Q1121.95 38.939 1121.97 38.972Q1122 39.0049 1122.01 39.0407Z" id="Étoile-Copier" fill="#000000" fill-rule="evenodd" stroke="none" />
    <path d="M541.014 32.0407L541.38 32.7829Q541.414 32.8526 541.464 32.912Q541.514 32.9714 541.577 33.0171Q541.64 33.0628 541.712 33.0921Q541.784 33.1214 541.861 33.1325L542.68 33.2516Q542.72 33.2573 542.758 33.2684Q542.796 33.2796 542.833 33.2959Q542.869 33.3123 542.903 33.3335Q542.937 33.3548 542.967 33.3805Q542.997 33.4062 543.024 33.4359Q543.051 33.4655 543.073 33.4986Q543.095 33.5317 543.113 33.5676Q543.13 33.6034 543.143 33.6414Q543.155 33.6793 543.162 33.7186Q543.169 33.7578 543.17 33.7977Q543.172 33.8376 543.168 33.8772Q543.164 33.9169 543.154 33.9556Q543.144 33.9943 543.13 34.0314Q543.115 34.0684 543.095 34.103Q543.075 34.1376 543.051 34.1691Q543.026 34.2007 542.998 34.2285L542.405 34.8062Q542.349 34.8605 542.308 34.9265Q542.267 34.9925 542.243 35.0664Q542.219 35.1403 542.214 35.2179Q542.208 35.2954 542.221 35.372L542.361 36.1877Q542.368 36.227 542.369 36.2669Q542.37 36.3068 542.366 36.3464Q542.362 36.3861 542.352 36.4247Q542.342 36.4634 542.327 36.5004Q542.312 36.5373 542.292 36.5718Q542.272 36.6063 542.247 36.6377Q542.223 36.6691 542.194 36.6968Q542.165 36.7245 542.133 36.7479Q542.101 36.7714 542.066 36.7901Q542.031 36.8089 541.993 36.8225Q541.956 36.8362 541.917 36.8446Q541.878 36.8529 541.838 36.8558Q541.798 36.8587 541.758 36.856Q541.719 36.8534 541.679 36.8452Q541.64 36.8371 541.603 36.8236Q541.565 36.8101 541.53 36.7915L540.797 36.4064Q540.729 36.3702 540.653 36.3516Q540.578 36.333 540.5 36.333Q540.422 36.333 540.347 36.3516Q540.271 36.3702 540.203 36.4064L539.47 36.7915Q539.435 36.8101 539.397 36.8236Q539.36 36.8371 539.32 36.8452Q539.281 36.8534 539.242 36.856Q539.202 36.8587 539.162 36.8558Q539.122 36.8529 539.083 36.8446Q539.044 36.8362 539.007 36.8225Q538.969 36.8089 538.934 36.7901Q538.899 36.7714 538.867 36.7479Q538.834 36.7245 538.806 36.6968Q538.777 36.6691 538.753 36.6377Q538.728 36.6063 538.708 36.5718Q538.688 36.5373 538.673 36.5004Q538.658 36.4634 538.648 36.4247Q538.638 36.3861 538.634 36.3464Q538.63 36.3068 538.631 36.2669Q538.632 36.227 538.639 36.1877L538.779 35.372Q538.792 35.2954 538.786 35.2179Q538.781 35.1403 538.757 35.0664Q538.733 34.9925 538.692 34.9265Q538.651 34.8605 538.595 34.8062L538.002 34.2285Q537.974 34.2007 537.949 34.1691Q537.925 34.1376 537.905 34.103Q537.885 34.0684 537.87 34.0314Q537.856 33.9943 537.846 33.9556Q537.836 33.9169 537.832 33.8772Q537.828 33.8376 537.83 33.7977Q537.831 33.7579 537.838 33.7186Q537.845 33.6793 537.857 33.6414Q537.87 33.6034 537.887 33.5676Q537.905 33.5317 537.927 33.4986Q537.949 33.4655 537.976 33.4359Q538.002 33.4062 538.033 33.3805Q538.063 33.3548 538.097 33.3335Q538.131 33.3123 538.167 33.2959Q538.204 33.2796 538.242 33.2684Q538.28 33.2573 538.32 33.2516L539.139 33.1325Q539.216 33.1214 539.288 33.0921Q539.36 33.0628 539.423 33.0171Q539.486 32.9714 539.536 32.912Q539.586 32.8526 539.62 32.7829L539.986 32.0407Q540.004 32.0049 540.026 31.9719Q540.049 31.939 540.076 31.9094Q540.103 31.8799 540.133 31.8543Q540.164 31.8288 540.198 31.8077Q540.232 31.7867 540.268 31.7705Q540.304 31.7544 540.343 31.7434Q540.381 31.7325 540.421 31.7269Q540.46 31.7214 540.5 31.7214Q540.54 31.7214 540.579 31.7269Q540.619 31.7325 540.657 31.7434Q540.695 31.7544 540.732 31.7705Q540.768 31.7867 540.802 31.8077Q540.836 31.8288 540.867 31.8543Q540.897 31.8799 540.924 31.9094Q540.951 31.939 540.974 31.9719Q540.996 32.0049 541.014 32.0407Z" id="Étoile" fill="#FFFFFF" fill-rule="evenodd" stroke="none" />
    <g id="Groupes-3-Copier-3" transform="translate(1265.9995 220)">
      <g id="Groupes-2">
        <path d="M0.00012207 3.2963C0.00012207 1.4758 1.49248 0 3.3334 0C5.17432 0 6.66668 1.4758 6.66668 3.2963C6.66668 5.11679 5.17432 6.5926 3.3334 6.5926C1.49248 6.5926 0.00012207 5.11679 0.00012207 3.2963Z" id="Ovale" fill="#FFFEFF" fill-rule="evenodd" stroke="none" />
        <path d="M0 19.7778C0 17.9573 1.49236 16.4815 3.33328 16.4815C5.1742 16.4815 6.66656 17.9573 6.66656 19.7778C6.66656 21.5983 5.1742 23.0741 3.33328 23.0741C1.49236 23.0741 0 21.5983 0 19.7778Z" id="Ovale-Copier" fill="#FFFEFF" fill-rule="evenodd" stroke="none" />
        <path d="M0.00012207 36.2593C0.00012207 34.4388 1.49248 32.963 3.3334 32.963C5.17432 32.963 6.66668 34.4388 6.66668 36.2593C6.66668 38.0798 5.17432 39.5556 3.3334 39.5556C1.49248 39.5556 0.00012207 38.0798 0.00012207 36.2593Z" id="Ovale-Copier-2" fill="#FFFEFF" fill-rule="evenodd" stroke="none" />
        <path d="M0.000366211 52.7408C0.000366211 50.9203 1.49273 49.4445 3.33364 49.4445C5.17456 49.4445 6.66692 50.9203 6.66692 52.7408C6.66692 54.5613 5.17456 56.0371 3.33364 56.0371C1.49273 56.0371 0.000366211 54.5613 0.000366211 52.7408Z" id="Ovale-Copier-3" fill="#FFFEFF" fill-rule="evenodd" stroke="none" />
        <path d="M0.00012207 69.2223C0.00012207 67.4018 1.49248 65.9259 3.3334 65.9259C5.17432 65.9259 6.66668 67.4018 6.66668 69.2223C6.66668 71.0427 5.17432 72.5186 3.3334 72.5186C1.49248 72.5186 0.00012207 71.0427 0.00012207 69.2223Z" id="Ovale-Copier-4" fill="#FFFEFF" fill-rule="evenodd" stroke="none" />
        <path d="M0.000366211 85.7037C0.000366211 83.8832 1.49273 82.4074 3.33364 82.4074C5.17456 82.4074 6.66692 83.8832 6.66692 85.7037C6.66692 87.5242 5.17456 89 3.33364 89C1.49273 89 0.000366211 87.5242 0.000366211 85.7037Z" id="Ovale-Copier-5" fill="#FFFEFF" fill-rule="evenodd" stroke="none" />
        <path d="M16.6666 3.2963C16.6666 1.4758 18.159 0 19.9999 0C21.8408 0 23.3332 1.4758 23.3332 3.2963C23.3332 5.11679 21.8408 6.5926 19.9999 6.5926C18.159 6.5926 16.6666 5.11679 16.6666 3.2963Z" id="Ovale-Copier-6" fill="#FFFEFF" fill-rule="evenodd" stroke="none" />
        <path d="M16.6665 19.7778C16.6665 17.9573 18.1589 16.4815 19.9998 16.4815C21.8407 16.4815 23.3331 17.9573 23.3331 19.7778C23.3331 21.5983 21.8407 23.0741 19.9998 23.0741C18.1589 23.0741 16.6665 21.5983 16.6665 19.7778Z" id="Ovale-Copier-7" fill="#FFFEFF" fill-rule="evenodd" stroke="none" />
        <path d="M16.6666 36.2593C16.6666 34.4388 18.159 32.963 19.9999 32.963C21.8408 32.963 23.3332 34.4388 23.3332 36.2593C23.3332 38.0798 21.8408 39.5556 19.9999 39.5556C18.159 39.5556 16.6666 38.0798 16.6666 36.2593Z" id="Ovale-Copier-8" fill="#FFFEFF" fill-rule="evenodd" stroke="none" />
        <path d="M16.6669 52.7408C16.6669 50.9203 18.1592 49.4445 20.0002 49.4445C21.8411 49.4445 23.3334 50.9203 23.3334 52.7408C23.3334 54.5613 21.8411 56.0371 20.0002 56.0371C18.1592 56.0371 16.6669 54.5613 16.6669 52.7408Z" id="Ovale-Copier-9" fill="#FFFEFF" fill-rule="evenodd" stroke="none" />
        <path d="M16.6666 69.2223C16.6666 67.4018 18.159 65.9259 19.9999 65.9259C21.8408 65.9259 23.3332 67.4018 23.3332 69.2223C23.3332 71.0427 21.8408 72.5186 19.9999 72.5186C18.159 72.5186 16.6666 71.0427 16.6666 69.2223Z" id="Ovale-Copier-10" fill="#FFFEFF" fill-rule="evenodd" stroke="none" />
        <path d="M16.6669 85.7037C16.6669 83.8832 18.1592 82.4074 20.0002 82.4074C21.8411 82.4074 23.3334 83.8832 23.3334 85.7037C23.3334 87.5242 21.8411 89 20.0002 89C18.1592 89 16.6669 87.5242 16.6669 85.7037Z" id="Ovale-Copier-11" fill="#FFFEFF" fill-rule="evenodd" stroke="none" />
        <path d="M33.3332 3.2963C33.3332 1.4758 34.8256 0 36.6665 0C38.5074 0 39.9998 1.4758 39.9998 3.2963C39.9998 5.11679 38.5074 6.5926 36.6665 6.5926C34.8256 6.5926 33.3332 5.11679 33.3332 3.2963Z" id="Ovale-Copier-12" fill="#FFFEFF" fill-rule="evenodd" stroke="none" />
        <path d="M33.333 19.7778C33.333 17.9573 34.8253 16.4815 36.6662 16.4815C38.5072 16.4815 39.9995 17.9573 39.9995 19.7778C39.9995 21.5983 38.5072 23.0741 36.6662 23.0741C34.8253 23.0741 33.333 21.5983 33.333 19.7778Z" id="Ovale-Copier-13" fill="#FFFEFF" fill-rule="evenodd" stroke="none" />
        <path d="M33.3332 36.2593C33.3332 34.4388 34.8256 32.963 36.6665 32.963C38.5074 32.963 39.9998 34.4388 39.9998 36.2593C39.9998 38.0798 38.5074 39.5556 36.6665 39.5556C34.8256 39.5556 33.3332 38.0798 33.3332 36.2593Z" id="Ovale-Copier-14" fill="#FFFEFF" fill-rule="evenodd" stroke="none" />
        <path d="M33.3334 52.7408C33.3334 50.9203 34.8258 49.4445 36.6667 49.4445C38.5076 49.4445 40 50.9203 40 52.7408C40 54.5613 38.5076 56.0371 36.6667 56.0371C34.8258 56.0371 33.3334 54.5613 33.3334 52.7408Z" id="Ovale-Copier-15" fill="#FFFEFF" fill-rule="evenodd" stroke="none" />
        <path d="M33.3332 69.2223C33.3332 67.4018 34.8256 65.9259 36.6665 65.9259C38.5074 65.9259 39.9998 67.4018 39.9998 69.2223C39.9998 71.0427 38.5074 72.5186 36.6665 72.5186C34.8256 72.5186 33.3332 71.0427 33.3332 69.2223Z" id="Ovale-Copier-16" fill="#FFFEFF" fill-rule="evenodd" stroke="none" />
      </g>
      <path d="M33.3334 85.7037C33.3334 83.8832 34.8258 82.4074 36.6667 82.4074C38.5076 82.4074 40 83.8832 40 85.7037C40 87.5242 38.5076 89 36.6667 89C34.8258 89 33.3334 87.5242 33.3334 85.7037Z" id="Ovale-Copier-17" fill="#FFFEFF" fill-rule="evenodd" stroke="none" />
    </g>
    <g id="Ovale-Copier-4">
      <use stroke="none" fill="#7734E7" xlink:href="#path_5" fill-rule="evenodd" filter="url(#filter_1)" />
    </g>
    <path d="M280 156L272.93 156L272.93 163L280 163L280 156L280 156Z" id="Rectangle-Copier-2-Copier" fill="#FFFFFF" fill-rule="evenodd" stroke="none" />
    <path d="M806.07 104L799 104L799 111L806.07 111L806.07 104L806.07 104Z" id="Rectangle-Copier-2" fill="#0132FB" fill-rule="evenodd" stroke="none" />
    <path d="M1195.64 472.668L1192.27 475.086L1193.56 479L1197.72 479L1199 475.086L1195.64 472.668L1195.64 472.668Z" id="Polygone-2" fill="#CCCCCC" fill-rule="evenodd" stroke="none" />
  </g>
</svg>