<?xml version="1.0" encoding="utf-8"?>
<svg width="1326px" height="651px" viewBox="0 0 1326 651" version="1.1" xmlns:xlink="http://www.w3.org/1999/xlink" xmlns="http://www.w3.org/2000/svg">
  <defs>
    <linearGradient gradientUnits="objectBoundingBox" x1="1.8944981" y1="-1.4297423" x2="0.49377644" y2="0.784987" id="gradient_1">
      <stop offset="0%" stop-color="#0132FB" />
      <stop offset="100%" stop-color="#7734E7" />
    </linearGradient>
    <filter filterUnits="userSpaceOnUse" color-interpolation-filters="sRGB" id="filter_1">
      <feFlood flood-opacity="0" result="BackgroundImageFix" />
      <feBlend mode="normal" in="SourceGraphic" in2="BackgroundImageFix" result="shape" />
      <feColorMatrix in="SourceAlpha" type="matrix" values="0 0 0 0 0 0 0 0 0 0 0 0 0 0 0 0 0 0 128 0" result="hardAlpha" />
      <feOffset dx="1" dy="7" />
      <feGaussianBlur stdDeviation="5" />
      <feComposite in2="hardAlpha" operator="arithmetic" k2="-1" k3="1" />
      <feColorMatrix type="matrix" values="0 0 0 0 1 0 0 0 0 1 0 0 0 0 1 0 0 0 0.49803922 0" />
      <feBlend mode="normal" in2="shape" result="effect0_innerShadow" />
    </filter>
    <path d="M1326 0L1326 0L1326 651L0 651L0 0L1326 0Z" id="path_1" />
    <path d="M1181.26 0L1181.26 0L1181.26 462L0 462L0 0L1181.26 0Z" id="path_2" />
    <path d="M994.221 372.973C994.221 372.973 993.275 362.164 993.275 362.164C1019.79 359.844 1043.17 379.372 1045.48 405.781C1047.79 432.189 1028.16 455.479 1001.64 457.799C975.122 460.119 951.751 440.591 949.44 414.183C947.13 387.774 966.755 364.484 993.275 362.164C993.275 362.164 994.221 372.973 994.221 372.973C973.696 374.769 958.507 392.794 960.295 413.233C962.083 433.672 980.171 448.786 1000.7 446.99C1021.22 445.194 1036.41 427.169 1034.62 406.73C1032.83 386.291 1014.75 371.177 994.221 372.973Z" id="path_3" />
    <path d="M566.647 200.288C566.647 200.288 564.302 173.491 564.302 173.491C630.049 167.738 687.991 216.151 693.719 281.623C699.447 347.094 650.792 404.833 585.045 410.585C519.298 416.337 461.357 367.925 455.628 302.453C449.9 236.981 498.555 179.243 564.302 173.491C564.302 173.491 566.647 200.288 566.647 200.288C515.762 204.739 478.105 249.426 482.538 300.099C486.971 350.771 531.816 388.24 582.701 383.788C633.586 379.336 671.243 334.649 666.809 283.977C662.376 233.305 617.532 195.836 566.647 200.288Z" id="path_4" />
    <path d="M203.244 74.6607C203.244 74.6607 201.934 59.6859 201.934 59.6859C238.674 56.4715 271.054 83.5254 274.255 120.113C277.456 156.7 250.266 188.965 213.525 192.18C176.784 195.394 144.405 168.34 141.204 131.753C138.003 95.1659 165.193 62.9003 201.934 59.6859C201.934 59.6859 203.244 74.6607 203.244 74.6607C174.808 77.1485 153.765 102.121 156.242 130.437C158.719 158.754 183.779 179.693 212.215 177.205C240.651 174.717 261.694 149.745 259.217 121.428C256.74 93.1114 231.68 72.1729 203.244 74.6607Z" id="path_5" />
    <clipPath id="clip_1">
      <use xlink:href="#path_1" clip-rule="evenodd" fill-rule="evenodd" />
    </clipPath>
    <clipPath id="clip_2">
      <use xlink:href="#path_2" clip-rule="evenodd" fill-rule="evenodd" />
    </clipPath>
  </defs>
  <g id="competence" clip-path="url(#clip_1)">
    <path d="M1326 0L1326 0L1326 651L0 651L0 0L1326 0Z" id="competence" fill="#FFFFFF" stroke="none" />
    <path d="M-309.554 0L88.4561 0L88.4562 0L1326 0L1326 708L-309.554 708L-309.554 0Z" id="Rectangle" fill="url(#gradient_1)" fill-rule="evenodd" stroke="none" />
    <path d="M-52.5 -42.5019L-98 -12.0016C-98 -12.0016 -10.9993 -271.003 -10.9993 -271.003C-7.03983 -273.771 -130.453 44.5582 -38 17.3916C54.4531 -9.77521 51.1298 10.235 138.5 9.80148C301.914 -2.24539 269.754 12.6416 353.5 17.3918C437.246 22.142 487.318 8.72165 542.595 4.12009C607.748 -1.09824 691.321 13.7886 771.03 17.3918C852.996 19.3269 901.707 1.21069 971.001 9.80148C1124.54 43.1206 1165.78 4.91388 1239.5 17.3918C1308.41 25.0472 1328.63 -4.04025 1372.77 27C1416.91 58.0382 1354.14 215.104 1360.43 202.3C1361.73 199.65 1363.01 23.2016 1372.77 9.80145L1383.01 -10.0357L650.539 -11.8047C650.539 -11.8047 814.18 -12.2477 659.049 -11.8047C503.909 -11.3632 -10.9992 -22.5888 -10.9992 -22.5888L-52.5 -42.5019Z" id="Vecteur" fill="#FAFAFB" fill-rule="evenodd" stroke="none" />
    <g id="Cadre" clip-path="url(#clip_2)" transform="translate(0 128)">
      <path d="M1181.26 0L1181.26 0L1181.26 462L0 462L0 0L1181.26 0Z" id="Cadre" fill="none" stroke="none" />
      <g id="Ovale-Copier-5">
        <use stroke="none" fill="#7734E7" xlink:href="#path_3" fill-rule="evenodd" filter="url(#filter_1)" />
      </g>
      <g id="Groupes-6" transform="translate(26.34198 -102)">
        <path d="M810.259 406.342L808.176 413.886L802.974 409.202L810.259 406.342L810.259 406.342Z" id="Triangle-Copier" fill="#000000" fill-rule="evenodd" stroke="none" />
        <path d="M520.513 289.968L516.431 296.646L512.722 290.709L520.513 289.968L520.513 289.968Z" id="Triangle-Copier-Copier" fill="#0132FB" fill-rule="evenodd" stroke="none" />
        <path d="M32.3293 276.668L35.658 279.086L34.3866 283L30.272 283L29.0006 279.086L32.3293 276.668L32.3293 276.668Z" id="Polygone" fill="#CCCCCC" fill-rule="evenodd" stroke="none" />
        <path d="M821.4 0L814.326 0L814.326 7L821.4 7L821.4 0L821.4 0Z" id="Rectangle-2" fill="#EEEEEE" fill-rule="evenodd" stroke="none" />
        <path d="M347.48 397.698L351.658 404.335L355.302 398.27L347.48 397.698L347.48 397.698Z" id="Triangle-Copier-2" fill="#FFFFFF" fill-rule="evenodd" stroke="none" />
        <path d="M923.288 148.668L919.928 151.086L921.208 155L925.368 155L926.658 151.086L923.288 148.668L923.288 148.668Z" id="Polygone-Copier-2" fill="#FFFFFF" fill-rule="evenodd" stroke="none" />
        <path d="M3.32901 28.668L6.65802 31.086L5.38602 35L1.272 35L0 31.086L3.32901 28.668L3.32901 28.668Z" id="Polygone-Copier" fill="#000000" fill-rule="evenodd" stroke="none" />
        <path d="M1095.67 13.0407L1096.04 13.7829Q1096.07 13.8526 1096.12 13.912Q1096.17 13.9714 1096.24 14.0171Q1096.3 14.0628 1096.37 14.0921Q1096.44 14.1214 1096.52 14.1325L1097.34 14.2516Q1097.38 14.2573 1097.42 14.2684Q1097.45 14.2796 1097.49 14.2959Q1097.53 14.3123 1097.56 14.3335Q1097.59 14.3548 1097.63 14.3805Q1097.66 14.4062 1097.68 14.4359Q1097.71 14.4655 1097.73 14.4986Q1097.75 14.5317 1097.77 14.5676Q1097.79 14.6034 1097.8 14.6414Q1097.81 14.6793 1097.82 14.7186Q1097.83 14.7578 1097.83 14.7977Q1097.83 14.8376 1097.83 14.8772Q1097.82 14.9169 1097.81 14.9556Q1097.8 14.9943 1097.79 15.0314Q1097.77 15.0684 1097.75 15.103Q1097.73 15.1376 1097.71 15.1691Q1097.68 15.2007 1097.66 15.2285L1097.06 15.8062Q1097.01 15.8605 1096.97 15.9265Q1096.93 15.9925 1096.9 16.0664Q1096.88 16.1403 1096.87 16.2178Q1096.87 16.2954 1096.88 16.372L1097.02 17.1877Q1097.03 17.227 1097.03 17.2669Q1097.03 17.3068 1097.02 17.3464Q1097.02 17.3861 1097.01 17.4247Q1097 17.4634 1096.99 17.5004Q1096.97 17.5373 1096.95 17.5718Q1096.93 17.6063 1096.91 17.6377Q1096.88 17.6691 1096.85 17.6968Q1096.82 17.7245 1096.79 17.7479Q1096.76 17.7714 1096.72 17.7901Q1096.69 17.8089 1096.65 17.8225Q1096.61 17.8362 1096.57 17.8446Q1096.54 17.8529 1096.5 17.8558Q1096.46 17.8587 1096.42 17.856Q1096.38 17.8534 1096.34 17.8452Q1096.3 17.8371 1096.26 17.8236Q1096.22 17.8101 1096.19 17.7915L1095.46 17.4064Q1095.39 17.3702 1095.31 17.3516Q1095.24 17.3329 1095.16 17.3329Q1095.08 17.3329 1095 17.3516Q1094.93 17.3702 1094.86 17.4064L1094.13 17.7915Q1094.09 17.8101 1094.06 17.8236Q1094.02 17.8371 1093.98 17.8452Q1093.94 17.8534 1093.9 17.856Q1093.86 17.8587 1093.82 17.8558Q1093.78 17.8529 1093.74 17.8446Q1093.7 17.8362 1093.66 17.8225Q1093.63 17.8089 1093.59 17.7901Q1093.56 17.7714 1093.52 17.7479Q1093.49 17.7245 1093.46 17.6968Q1093.43 17.6691 1093.41 17.6377Q1093.39 17.6063 1093.37 17.5718Q1093.35 17.5373 1093.33 17.5004Q1093.32 17.4634 1093.31 17.4247Q1093.3 17.3861 1093.29 17.3464Q1093.29 17.3068 1093.29 17.2669Q1093.29 17.227 1093.3 17.1877L1093.44 16.372Q1093.45 16.2954 1093.44 16.2178Q1093.44 16.1403 1093.41 16.0664Q1093.39 15.9925 1093.35 15.9265Q1093.31 15.8605 1093.25 15.8062L1092.66 15.2285Q1092.63 15.2007 1092.61 15.1691Q1092.58 15.1376 1092.56 15.103Q1092.54 15.0684 1092.53 15.0314Q1092.51 14.9943 1092.5 14.9556Q1092.49 14.9169 1092.49 14.8772Q1092.49 14.8376 1092.49 14.7977Q1092.49 14.7578 1092.5 14.7186Q1092.5 14.6793 1092.52 14.6414Q1092.53 14.6034 1092.55 14.5676Q1092.56 14.5317 1092.58 14.4986Q1092.61 14.4655 1092.63 14.4359Q1092.66 14.4062 1092.69 14.3805Q1092.72 14.3548 1092.76 14.3335Q1092.79 14.3123 1092.83 14.2959Q1092.86 14.2796 1092.9 14.2684Q1092.94 14.2573 1092.98 14.2516L1093.8 14.1325Q1093.87 14.1214 1093.95 14.0921Q1094.02 14.0628 1094.08 14.0171Q1094.14 13.9714 1094.19 13.912Q1094.24 13.8526 1094.28 13.7829L1094.64 13.0407Q1094.66 13.0049 1094.68 12.9719Q1094.71 12.939 1094.73 12.9094Q1094.76 12.8799 1094.79 12.8543Q1094.82 12.8288 1094.86 12.8077Q1094.89 12.7867 1094.93 12.7705Q1094.96 12.7544 1095 12.7434Q1095.04 12.7325 1095.08 12.7269Q1095.12 12.7214 1095.16 12.7214Q1095.2 12.7214 1095.24 12.7269Q1095.28 12.7325 1095.31 12.7434Q1095.35 12.7544 1095.39 12.7705Q1095.43 12.7867 1095.46 12.8077Q1095.49 12.8288 1095.52 12.8543Q1095.56 12.8799 1095.58 12.9094Q1095.61 12.939 1095.63 12.9719Q1095.65 13.0049 1095.67 13.0407Z" id="Étoile-Copier" fill="#000000" fill-rule="evenodd" stroke="none" />
        <path d="M514.672 6.04069L515.038 6.78289Q515.072 6.85259 515.122 6.91201Q515.172 6.97143 515.235 7.01711Q515.298 7.0628 515.37 7.09208Q515.442 7.12136 515.519 7.13254L516.338 7.25156Q516.378 7.25729 516.416 7.26844Q516.454 7.27959 516.491 7.29594Q516.527 7.31229 516.561 7.33353Q516.595 7.35476 516.625 7.38047Q516.656 7.40617 516.682 7.43586Q516.709 7.46555 516.731 7.49864Q516.753 7.53173 516.771 7.56758Q516.788 7.60344 516.801 7.64137Q516.813 7.6793 516.82 7.71857Q516.827 7.75785 516.828 7.7977Q516.83 7.83756 516.826 7.87723Q516.822 7.9169 516.812 7.95562Q516.802 7.99434 516.788 8.03137Q516.773 8.06839 516.753 8.103Q516.733 8.13761 516.709 8.16914Q516.684 8.20066 516.656 8.2285L516.063 8.80623Q516.007 8.86048 515.966 8.92649Q515.925 8.99249 515.901 9.06641Q515.877 9.14033 515.872 9.21785Q515.866 9.29537 515.879 9.37197L516.019 10.1877Q516.026 10.227 516.027 10.2669Q516.028 10.3068 516.024 10.3464Q516.02 10.3861 516.01 10.4247Q516 10.4634 515.985 10.5004Q515.97 10.5373 515.95 10.5718Q515.93 10.6063 515.905 10.6377Q515.881 10.6691 515.852 10.6968Q515.824 10.7245 515.791 10.7479Q515.759 10.7714 515.724 10.7901Q515.689 10.8089 515.651 10.8225Q515.614 10.8362 515.575 10.8446Q515.536 10.8529 515.496 10.8558Q515.456 10.8587 515.416 10.856Q515.377 10.8534 515.337 10.8452Q515.298 10.8371 515.261 10.8236Q515.223 10.8101 515.188 10.7915L514.455 10.4064Q514.387 10.3702 514.311 10.3516Q514.236 10.3329 514.158 10.3329Q514.08 10.3329 514.005 10.3516Q513.929 10.3702 513.861 10.4064L513.128 10.7915Q513.093 10.8101 513.055 10.8236Q513.018 10.8371 512.979 10.8452Q512.94 10.8534 512.9 10.856Q512.86 10.8587 512.82 10.8558Q512.78 10.8529 512.741 10.8446Q512.702 10.8362 512.665 10.8225Q512.628 10.8089 512.592 10.7901Q512.557 10.7714 512.525 10.7479Q512.493 10.7245 512.464 10.6968Q512.435 10.6691 512.411 10.6377Q512.386 10.6063 512.366 10.5718Q512.346 10.5373 512.331 10.5004Q512.316 10.4634 512.306 10.4247Q512.296 10.3861 512.292 10.3464Q512.288 10.3068 512.289 10.2669Q512.29 10.227 512.297 10.1877L512.437 9.37197Q512.45 9.29537 512.444 9.21785Q512.439 9.14033 512.415 9.06641Q512.391 8.9925 512.35 8.92649Q512.309 8.86048 512.253 8.80623L511.66 8.2285Q511.632 8.20066 511.607 8.16914Q511.583 8.13761 511.563 8.103Q511.543 8.06839 511.529 8.03137Q511.514 7.99434 511.504 7.95562Q511.495 7.9169 511.49 7.87723Q511.486 7.83756 511.488 7.7977Q511.489 7.75785 511.496 7.71857Q511.503 7.6793 511.515 7.64137Q511.528 7.60344 511.545 7.56758Q511.563 7.53173 511.585 7.49863Q511.607 7.46554 511.634 7.43586Q511.66 7.40617 511.691 7.38047Q511.721 7.35476 511.755 7.33353Q511.789 7.31229 511.825 7.29594Q511.862 7.27959 511.9 7.26844Q511.938 7.25729 511.978 7.25156L512.797 7.13254Q512.874 7.12136 512.946 7.09208Q513.018 7.0628 513.081 7.01711Q513.144 6.97143 513.194 6.91201Q513.244 6.85259 513.278 6.78289L513.644 6.04069Q513.662 6.00492 513.685 5.97195Q513.707 5.93898 513.734 5.90943Q513.76 5.87989 513.791 5.85434Q513.822 5.82879 513.856 5.80774Q513.889 5.78668 513.926 5.77052Q513.962 5.75436 514.001 5.74342Q514.039 5.73247 514.079 5.72694Q514.118 5.72141 514.158 5.72141Q514.198 5.72141 514.237 5.72694Q514.277 5.73247 514.315 5.74342Q514.354 5.75436 514.39 5.77052Q514.427 5.78668 514.46 5.80774Q514.494 5.82879 514.525 5.85434Q514.555 5.87989 514.582 5.90943Q514.609 5.93898 514.632 5.97195Q514.654 6.00492 514.672 6.04069Z" id="Étoile" fill="#FFFFFF" fill-rule="evenodd" stroke="none" />
        <path d="M253.658 130L246.588 130L246.588 137L253.658 137L253.658 130L253.658 130Z" id="Rectangle-Copier-2-Copier" fill="#FFFFFF" fill-rule="evenodd" stroke="none" />
        <path d="M779.728 78L772.658 78L772.658 85L779.728 85L779.728 78L779.728 78Z" id="Rectangle-Copier-2" fill="#0132FB" fill-rule="evenodd" stroke="none" />
        <path d="M1169.3 446.668L1165.93 449.086L1167.22 453L1171.38 453L1172.66 449.086L1169.3 446.668L1169.3 446.668Z" id="Polygone-2" fill="#CCCCCC" fill-rule="evenodd" stroke="none" />
      </g>
    </g>
    <g id="Ovale-Copier-3">
      <use stroke="none" fill="#7734E7" xlink:href="#path_4" fill-rule="evenodd" filter="url(#filter_1)" />
    </g>
    <g id="Groupes-3-Copier-3" transform="translate(1265.9995 220)">
      <g id="Groupes-2">
        <path d="M0.00012207 3.2963C0.00012207 1.4758 1.49248 0 3.3334 0C5.17432 0 6.66668 1.4758 6.66668 3.2963C6.66668 5.11679 5.17432 6.5926 3.3334 6.5926C1.49248 6.5926 0.00012207 5.11679 0.00012207 3.2963Z" id="Ovale" fill="#FFFEFF" fill-rule="evenodd" stroke="none" />
        <path d="M0 19.7777C0 17.9572 1.49236 16.4814 3.33328 16.4814C5.1742 16.4814 6.66656 17.9572 6.66656 19.7777C6.66656 21.5982 5.1742 23.074 3.33328 23.074C1.49236 23.074 0 21.5982 0 19.7777Z" id="Ovale-Copier" fill="#FFFEFF" fill-rule="evenodd" stroke="none" />
        <path d="M0.00012207 36.2594C0.00012207 34.4389 1.49248 32.9631 3.3334 32.9631C5.17432 32.9631 6.66668 34.4389 6.66668 36.2594C6.66668 38.0799 5.17432 39.5557 3.3334 39.5557C1.49248 39.5557 0.00012207 38.0799 0.00012207 36.2594Z" id="Ovale-Copier-2" fill="#FFFEFF" fill-rule="evenodd" stroke="none" />
        <path d="M0.000366211 52.7409C0.000366211 50.9204 1.49273 49.4446 3.33364 49.4446C5.17456 49.4446 6.66692 50.9204 6.66692 52.7409C6.66692 54.5614 5.17456 56.0372 3.33364 56.0372C1.49273 56.0372 0.000366211 54.5614 0.000366211 52.7409Z" id="Ovale-Copier-3" fill="#FFFEFF" fill-rule="evenodd" stroke="none" />
        <path d="M0.00012207 69.2223C0.00012207 67.4018 1.49248 65.926 3.3334 65.926C5.17432 65.926 6.66668 67.4018 6.66668 69.2223C6.66668 71.0428 5.17432 72.5186 3.3334 72.5186C1.49248 72.5186 0.00012207 71.0428 0.00012207 69.2223Z" id="Ovale-Copier-4" fill="#FFFEFF" fill-rule="evenodd" stroke="none" />
        <path d="M0.000366211 85.7038C0.000366211 83.8833 1.49273 82.4075 3.33364 82.4075C5.17456 82.4075 6.66692 83.8833 6.66692 85.7038C6.66692 87.5243 5.17456 89.0001 3.33364 89.0001C1.49273 89.0001 0.000366211 87.5243 0.000366211 85.7038Z" id="Ovale-Copier-5" fill="#FFFEFF" fill-rule="evenodd" stroke="none" />
        <path d="M16.6666 3.2963C16.6666 1.4758 18.159 0 19.9999 0C21.8408 0 23.3332 1.4758 23.3332 3.2963C23.3332 5.11679 21.8408 6.5926 19.9999 6.5926C18.159 6.5926 16.6666 5.11679 16.6666 3.2963Z" id="Ovale-Copier-6" fill="#FFFEFF" fill-rule="evenodd" stroke="none" />
        <path d="M16.6665 19.7777C16.6665 17.9572 18.1589 16.4814 19.9998 16.4814C21.8407 16.4814 23.3331 17.9572 23.3331 19.7777C23.3331 21.5982 21.8407 23.074 19.9998 23.074C18.1589 23.074 16.6665 21.5982 16.6665 19.7777Z" id="Ovale-Copier-7" fill="#FFFEFF" fill-rule="evenodd" stroke="none" />
        <path d="M16.6666 36.2594C16.6666 34.4389 18.159 32.9631 19.9999 32.9631C21.8408 32.9631 23.3332 34.4389 23.3332 36.2594C23.3332 38.0799 21.8408 39.5557 19.9999 39.5557C18.159 39.5557 16.6666 38.0799 16.6666 36.2594Z" id="Ovale-Copier-8" fill="#FFFEFF" fill-rule="evenodd" stroke="none" />
        <path d="M16.6669 52.7409C16.6669 50.9204 18.1592 49.4446 20.0001 49.4446C21.8411 49.4446 23.3334 50.9204 23.3334 52.7409C23.3334 54.5614 21.8411 56.0372 20.0001 56.0372C18.1592 56.0372 16.6669 54.5614 16.6669 52.7409Z" id="Ovale-Copier-9" fill="#FFFEFF" fill-rule="evenodd" stroke="none" />
        <path d="M16.6666 69.2223C16.6666 67.4018 18.159 65.926 19.9999 65.926C21.8408 65.926 23.3332 67.4018 23.3332 69.2223C23.3332 71.0428 21.8408 72.5186 19.9999 72.5186C18.159 72.5186 16.6666 71.0428 16.6666 69.2223Z" id="Ovale-Copier-10" fill="#FFFEFF" fill-rule="evenodd" stroke="none" />
        <path d="M16.6669 85.7038C16.6669 83.8833 18.1592 82.4075 20.0001 82.4075C21.8411 82.4075 23.3334 83.8833 23.3334 85.7038C23.3334 87.5243 21.8411 89.0001 20.0001 89.0001C18.1592 89.0001 16.6669 87.5243 16.6669 85.7038Z" id="Ovale-Copier-11" fill="#FFFEFF" fill-rule="evenodd" stroke="none" />
        <path d="M33.3332 3.2963C33.3332 1.4758 34.8256 0 36.6665 0C38.5074 0 39.9997 1.4758 39.9997 3.2963C39.9997 5.11679 38.5074 6.5926 36.6665 6.5926C34.8256 6.5926 33.3332 5.11679 33.3332 3.2963Z" id="Ovale-Copier-12" fill="#FFFEFF" fill-rule="evenodd" stroke="none" />
        <path d="M33.3329 19.7777C33.3329 17.9572 34.8253 16.4814 36.6662 16.4814C38.5071 16.4814 39.9995 17.9572 39.9995 19.7777C39.9995 21.5982 38.5071 23.074 36.6662 23.074C34.8253 23.074 33.3329 21.5982 33.3329 19.7777Z" id="Ovale-Copier-13" fill="#FFFEFF" fill-rule="evenodd" stroke="none" />
        <path d="M33.3332 36.2594C33.3332 34.4389 34.8256 32.9631 36.6665 32.9631C38.5074 32.9631 39.9997 34.4389 39.9997 36.2594C39.9997 38.0799 38.5074 39.5557 36.6665 39.5557C34.8256 39.5557 33.3332 38.0799 33.3332 36.2594Z" id="Ovale-Copier-14" fill="#FFFEFF" fill-rule="evenodd" stroke="none" />
        <path d="M33.3334 52.7409C33.3334 50.9204 34.8258 49.4446 36.6667 49.4446C38.5076 49.4446 40 50.9204 40 52.7409C40 54.5614 38.5076 56.0372 36.6667 56.0372C34.8258 56.0372 33.3334 54.5614 33.3334 52.7409Z" id="Ovale-Copier-15" fill="#FFFEFF" fill-rule="evenodd" stroke="none" />
        <path d="M33.3332 69.2223C33.3332 67.4018 34.8256 65.926 36.6665 65.926C38.5074 65.926 39.9997 67.4018 39.9997 69.2223C39.9997 71.0428 38.5074 72.5186 36.6665 72.5186C34.8256 72.5186 33.3332 71.0428 33.3332 69.2223Z" id="Ovale-Copier-16" fill="#FFFEFF" fill-rule="evenodd" stroke="none" />
      </g>
      <path d="M33.3334 85.7038C33.3334 83.8833 34.8258 82.4075 36.6667 82.4075C38.5076 82.4075 40 83.8833 40 85.7038C40 87.5243 38.5076 89.0001 36.6667 89.0001C34.8258 89.0001 33.3334 87.5243 33.3334 85.7038Z" id="Ovale-Copier-17" fill="#FFFEFF" fill-rule="evenodd" stroke="none" />
    </g>
    <g id="Ovale-Copier-4">
      <use stroke="none" fill="#7734E7" xlink:href="#path_5" fill-rule="evenodd" filter="url(#filter_1)" />
    </g>
  </g>
</svg>