<?xml version="1.0" encoding="utf-8"?>
<svg width="378px" height="99px" viewBox="0 0 378 99" version="1.1" xmlns:xlink="http://www.w3.org/1999/xlink" xmlns="http://www.w3.org/2000/svg">
  <defs>
    <path d="M378 0L378 0L378 99L0 99L0 0L378 0Z" id="path_1" />
    <clipPath id="clip_1">
      <use xlink:href="#path_1" clip-rule="evenodd" fill-rule="evenodd" />
    </clipPath>
  </defs>
  <g id="Cadre" clip-path="url(#clip_1)">
    <path d="M378 0L378 0L378 99L0 99L0 0L378 0Z" id="Cadre" fill="none" stroke="none" />
    <path d="M42.7295 30.5159C45.0888 31.1305 47.146 32.1409 48.896 33.5575C50.6459 34.9742 52.0053 36.7189 52.9792 38.7866C53.9479 40.8594 54.4375 43.1979 54.4375 45.8072C54.4375 48.7551 53.8802 51.4321 52.7709 53.8487C51.6563 56.2653 50.0626 58.3486 47.9793 60.0985C45.8961 61.8485 43.3961 63.2026 40.4795 64.1609C37.5629 65.1192 34.2974 65.5984 30.6881 65.5984L2.56381 65.5984L2.56381 1.97498L26.8132 1.97498C30.4485 1.97498 33.7141 2.40205 36.6046 3.24578C39.49 4.09471 41.9639 5.29781 44.0211 6.84985C46.0731 8.40711 47.646 10.2612 48.7293 12.4122C49.8126 14.5684 50.3543 16.9329 50.3543 19.5162C50.3543 21.3235 50.0105 22.9484 49.3335 24.3911C48.6512 25.839 47.7346 27.0733 46.5835 28.0993C45.4273 29.1305 44.1461 29.9326 42.7295 30.5159L42.7295 30.5159ZM22.5216 18.4329L22.5216 26.8077L26.5215 26.8077C27.9902 26.8077 29.084 26.3702 29.7923 25.4952C30.5006 24.6202 30.8548 23.6411 30.8548 22.5578C30.8548 21.4484 30.4589 20.4849 29.6673 19.662C28.8756 18.8443 27.4642 18.4329 25.4382 18.4329L22.5216 18.4329ZM28.3548 48.8488C30.2402 48.8488 31.6308 48.3853 32.5214 47.453C33.4068 46.526 33.8547 45.4062 33.8547 44.0989C33.8547 42.8802 33.438 41.8386 32.6047 40.974C31.7714 40.1147 30.5735 39.6824 29.0215 39.6824L22.5216 39.6824L22.5216 48.8488L28.3548 48.8488Z" id="Group" fill="#007F5F" fill-rule="evenodd" stroke="none" />
    <path d="M58.4771 65.5984L58.4771 1.97498L100.809 1.97498L100.809 20.1412L78.8932 20.1412L78.8932 26.266L97.6427 26.266L97.6427 41.349L78.8932 41.349L78.8932 47.4322L101.226 47.4322L101.226 65.5984L58.4771 65.5984Z" id="Group" fill="#007F5F" fill-rule="evenodd" stroke="none" />
    <path d="M126.557 67.265C123.724 67.265 121.078 66.9941 118.62 66.4525C116.161 65.9109 113.87 65.1973 111.745 64.3067C109.62 63.4213 107.625 62.463 105.766 61.4318L105.766 39.974C107.318 41.1146 109.005 42.2239 110.828 43.3073C112.646 44.3906 114.5 45.3697 116.39 46.2447C118.276 47.1196 120.099 47.8176 121.849 48.328C123.599 48.8436 125.166 49.0988 126.557 49.0988C127.724 49.0988 128.666 48.8436 129.39 48.328C130.109 47.8176 130.473 47.0311 130.473 45.9739C130.473 45.1405 130.223 44.4843 129.723 43.9947C129.223 43.5104 128.541 43.0989 127.682 42.7656C126.817 42.4323 125.849 42.1198 124.765 41.8281C123.682 41.5365 122.557 41.1823 121.39 40.7656C118.474 39.7136 115.953 38.5782 113.828 37.3699C111.703 36.1616 109.953 34.7762 108.578 33.2033C107.203 31.6357 106.172 29.7867 105.495 27.6618C104.813 25.5368 104.474 23.0317 104.474 20.1412C104.474 16.9746 105.068 14.1621 106.266 11.7039C107.458 9.24559 109.141 7.17273 111.307 5.47485C113.474 3.7822 116.042 2.49576 119.015 1.62079C121.984 0.745804 125.265 0.308319 128.849 0.308319C131.932 0.308319 134.979 0.678101 137.994 1.41246C141.004 2.15202 144.015 3.21449 147.015 4.59988L147.015 24.6827C145.848 23.74 144.52 22.8703 143.036 22.0786C141.546 21.287 139.984 20.6099 138.348 20.037C136.708 19.4693 135.109 19.0318 133.557 18.7245C131.999 18.4225 130.583 18.2662 129.307 18.2662C127.442 18.2662 126.182 18.511 125.515 18.9953C124.849 19.4849 124.515 20.0891 124.515 20.8078C124.515 21.5057 124.703 22.0734 125.078 22.5161C125.453 22.964 126.125 23.3807 127.099 23.7661C128.067 24.1567 129.416 24.6306 131.14 25.1827C133.083 25.766 135.005 26.4639 136.911 27.266C138.812 28.0732 140.603 29.0264 142.286 30.1201C143.963 31.219 145.457 32.5158 146.765 34.0158C148.067 35.5158 149.088 37.2553 149.827 39.224C150.562 41.1979 150.931 43.4635 150.931 46.0155C150.931 49.4894 150.327 52.5518 149.119 55.2028C147.911 57.8589 146.213 60.0777 144.036 61.8693C141.853 63.6609 139.275 65.0098 136.307 65.9109C133.333 66.8119 130.083 67.265 126.557 67.265L126.557 67.265Z" id="Group" fill="#007F5F" fill-rule="evenodd" stroke="none" />
    <path d="M154.971 65.5984L154.971 1.97498L197.303 1.97498L197.303 20.1412L175.387 20.1412L175.387 26.266L194.137 26.266L194.137 41.349L175.387 41.349L175.387 47.4322L197.72 47.4322L197.72 65.5984L154.971 65.5984Z" id="Group" fill="#007F5F" fill-rule="evenodd" stroke="none" />
    <path d="M202.968 65.5984L202.968 1.97498L226.426 1.97498C231.259 1.97498 235.728 2.65204 239.842 3.99576C243.952 5.34468 247.55 7.34984 250.634 10.0164C253.717 12.683 256.113 15.9955 257.821 19.9537C259.529 23.9119 260.383 28.5056 260.383 33.7242C260.383 38.5053 259.639 42.849 258.154 46.7655C256.665 50.6821 254.477 54.0466 251.592 56.8486C248.701 59.6558 245.16 61.8172 240.967 63.3276C236.769 64.8432 231.967 65.5984 226.551 65.5984L202.968 65.5984ZM223.384 46.9739L226.176 46.9739C230.619 46.9739 234.03 45.9322 236.405 43.8489C238.78 41.7656 239.967 38.4636 239.967 33.9325C239.967 29.4066 238.827 26.0577 236.551 23.8911C234.27 21.7245 230.811 20.6412 226.176 20.6412L223.384 20.6412L223.384 46.9739Z" id="Group" fill="#007F5F" fill-rule="evenodd" stroke="none" />
    <path d="M264.756 65.5984L264.756 1.97498L307.088 1.97498L307.088 20.1412L285.172 20.1412L285.172 26.266L303.922 26.266L303.922 41.349L285.172 41.349L285.172 47.4322L307.505 47.4322L307.505 65.5984L264.756 65.5984Z" id="Group" fill="#007F5F" fill-rule="evenodd" stroke="none" />
    <path d="M354.127 1.97498L376.043 1.97498L353.919 65.5984L331.253 65.5984L309.128 1.97498L331.753 1.97498L342.711 41.8073L343.252 41.8073L354.127 1.97498Z" id="Group" fill="#007F5F" fill-rule="evenodd" stroke="none" />
    <path d="M98.8422 96.9331L98.8422 86.9958L101.821 86.9958C102.571 86.9958 103.259 87.1104 103.884 87.3291C104.519 87.5375 105.071 87.85 105.53 88.2666C105.998 88.6833 106.363 89.2041 106.613 89.8291C106.873 90.4436 107.009 91.152 107.009 91.954C107.009 92.704 106.889 93.3863 106.655 93.9957C106.431 94.6102 106.097 95.1362 105.655 95.5789C105.222 96.0112 104.686 96.3446 104.05 96.5789C103.41 96.8185 102.675 96.9331 101.842 96.9331L98.8422 96.9331ZM100.967 94.9748L101.78 94.9748C102.764 94.9748 103.519 94.7196 104.05 94.204C104.592 93.6936 104.863 92.9488 104.863 91.9749C104.863 91.3499 104.743 90.8186 104.509 90.3707C104.285 89.9124 103.946 89.5687 103.488 89.3291C103.04 89.0791 102.472 88.9541 101.78 88.9541L100.967 88.9541L100.967 94.9748Z" id="Group" fill="#007F5F" fill-rule="evenodd" stroke="none" />
    <path d="M111.258 96.9331L111.258 86.9958L113.383 86.9958L113.383 96.9331L111.258 96.9331Z" id="Group" fill="#007F5F" fill-rule="evenodd" stroke="none" />
    <path d="M122.952 97.183C122.368 97.183 121.811 97.0997 121.285 96.933C120.754 96.756 120.269 96.5112 119.827 96.2039C119.394 95.8862 119.014 95.5112 118.681 95.0789C118.358 94.6519 118.103 94.1727 117.91 93.6415C117.728 93.0998 117.639 92.5373 117.639 91.954C117.639 91.3603 117.728 90.803 117.91 90.2874C118.103 89.7614 118.368 89.2822 118.702 88.8499C119.035 88.4072 119.42 88.0322 119.868 87.7249C120.327 87.4073 120.816 87.1625 121.347 86.9958C121.889 86.8187 122.452 86.725 123.035 86.725C123.452 86.725 123.847 86.7666 124.222 86.85C124.608 86.9333 124.978 87.0531 125.327 87.2041C125.67 87.3448 125.993 87.5062 126.285 87.6833L126.347 89.7249C125.858 89.4072 125.347 89.152 124.806 88.9541C124.274 88.7458 123.691 88.6416 123.056 88.6416C122.597 88.6416 122.165 88.7249 121.764 88.8916C121.358 89.0478 121.004 89.2666 120.702 89.5582C120.394 89.8499 120.16 90.204 119.993 90.6207C119.827 91.0269 119.743 91.4696 119.743 91.954C119.743 92.4436 119.827 92.8863 119.993 93.2873C120.16 93.6935 120.389 94.0477 120.681 94.3498C120.972 94.6414 121.311 94.8706 121.702 95.0373C122.103 95.1935 122.535 95.2664 122.993 95.2664C123.295 95.2664 123.582 95.2404 123.847 95.1831C124.123 95.1154 124.41 95.0112 124.702 94.8706L124.702 92.1207L126.618 92.1207L126.618 96.0997C125.962 96.4904 125.337 96.7664 124.743 96.933C124.16 97.0997 123.561 97.183 122.952 97.183L122.952 97.183Z" id="Group" fill="#007F5F" fill-rule="evenodd" stroke="none" />
    <path d="M131.078 96.9331L131.078 86.9958L133.203 86.9958L133.203 96.9331L131.078 96.9331Z" id="Group" fill="#007F5F" fill-rule="evenodd" stroke="none" />
    <path d="M139.813 96.9331L139.813 88.8916L137.209 88.8916L137.209 86.9958L144.522 86.9958L144.522 88.8916L141.938 88.8916L141.938 96.9331L139.813 96.9331Z" id="Group" fill="#007F5F" fill-rule="evenodd" stroke="none" />
    <path d="M155.239 96.9331L154.489 94.8706L150.926 94.8706L150.176 96.9331L147.906 96.9331L151.822 86.9958L153.656 86.9958L157.593 96.9331L155.239 96.9331ZM151.551 93.1207L153.864 93.1207L152.718 89.9541L151.551 93.1207Z" id="Group" fill="#007F5F" fill-rule="evenodd" stroke="none" />
    <path d="M161.674 96.9331L161.674 86.9958L163.799 86.9958L163.799 95.0164L167.09 95.0164L167.09 96.9331L161.674 96.9331Z" id="Group" fill="#007F5F" fill-rule="evenodd" stroke="none" />
    <path d="M180.6 97.183C180.167 97.183 179.766 97.131 179.391 97.0372C179.027 96.9539 178.693 96.8445 178.391 96.7039C178.084 96.5685 177.792 96.4122 177.516 96.2456L177.516 93.9956C177.735 94.1519 177.975 94.3029 178.225 94.4539C178.475 94.6102 178.73 94.7456 178.995 94.8706C179.271 94.9956 179.542 95.0945 179.808 95.1623C180.084 95.2352 180.35 95.2664 180.6 95.2664C180.85 95.2664 181.063 95.2248 181.245 95.1414C181.438 95.0477 181.589 94.9071 181.704 94.7248C181.829 94.5477 181.891 94.3237 181.891 94.0581C181.891 93.8394 181.813 93.6519 181.662 93.4956C181.521 93.329 181.318 93.1831 181.058 93.0581C180.792 92.9332 180.485 92.8082 180.141 92.6832C179.735 92.5321 179.37 92.3654 179.037 92.1832C178.714 92.0061 178.438 91.803 178.204 91.579C177.964 91.3447 177.787 91.0738 177.662 90.7665C177.537 90.4489 177.475 90.0739 177.475 89.6416C177.475 89.1833 177.558 88.7822 177.725 88.4333C177.891 88.0739 178.126 87.7666 178.433 87.5166C178.735 87.2666 179.089 87.0739 179.495 86.9333C179.912 86.7979 180.36 86.725 180.85 86.725C181.308 86.725 181.751 86.7875 182.183 86.9125C182.61 87.027 183.042 87.1937 183.474 87.4124L183.474 89.5374C183.235 89.3603 182.964 89.1989 182.662 89.0583C182.37 88.9229 182.068 88.8187 181.766 88.7458C181.459 88.6624 181.167 88.6208 180.891 88.6208C180.459 88.6208 180.131 88.7249 179.912 88.9333C179.688 89.1416 179.579 89.402 179.579 89.7041C179.579 89.9436 179.641 90.1364 179.766 90.2874C179.891 90.4436 180.068 90.5739 180.308 90.6832C180.558 90.7978 180.834 90.9124 181.141 91.0374C181.527 91.1624 181.896 91.3186 182.245 91.4957C182.605 91.678 182.917 91.8863 183.183 92.1207C183.443 92.3603 183.646 92.6363 183.787 92.954C183.938 93.2769 184.016 93.6415 184.016 94.0581C184.016 94.5737 183.922 95.0269 183.745 95.4123C183.579 95.8029 183.339 96.131 183.037 96.3914C182.73 96.657 182.37 96.8497 181.954 96.9747C181.537 97.1101 181.084 97.183 180.6 97.183L180.6 97.183Z" id="Group" fill="#007F5F" fill-rule="evenodd" stroke="none" />
    <path d="M193.068 97.183C192.485 97.183 191.922 97.0997 191.381 96.9331C190.849 96.756 190.365 96.5112 189.922 96.2039C189.49 95.8862 189.115 95.5112 188.797 95.0789C188.474 94.6362 188.224 94.1519 188.047 93.6206C187.881 93.0946 187.797 92.5373 187.797 91.954C187.797 91.3603 187.881 90.7978 188.047 90.2666C188.224 89.7405 188.474 89.2614 188.797 88.8291C189.115 88.402 189.49 88.0322 189.922 87.725C190.365 87.4072 190.849 87.1625 191.381 86.9958C191.922 86.8187 192.485 86.725 193.068 86.725C193.662 86.725 194.224 86.8187 194.755 86.9958C195.281 87.1625 195.761 87.4072 196.193 87.725C196.636 88.0322 197.016 88.402 197.339 88.8291C197.656 89.2614 197.901 89.7405 198.068 90.2666C198.245 90.7978 198.339 91.3603 198.339 91.954C198.339 92.5373 198.245 93.0946 198.068 93.6206C197.901 94.1519 197.656 94.6362 197.339 95.0789C197.016 95.5112 196.636 95.8862 196.193 96.2039C195.761 96.5112 195.281 96.756 194.755 96.9331C194.224 97.0997 193.662 97.183 193.068 97.183L193.068 97.183ZM193.068 95.2248C193.511 95.2248 193.922 95.1414 194.297 94.9748C194.672 94.8081 195.005 94.5789 195.297 94.2873C195.589 93.9852 195.807 93.6363 195.964 93.2456C196.13 92.8446 196.214 92.4123 196.214 91.954C196.214 91.4957 196.13 91.0738 195.964 90.6832C195.807 90.2822 195.589 89.9332 195.297 89.6416C195.005 89.3395 194.672 89.0999 194.297 88.9333C193.922 88.7666 193.511 88.6833 193.068 88.6833C192.636 88.6833 192.224 88.7666 191.839 88.9333C191.464 89.0999 191.131 89.3395 190.839 89.6416C190.558 89.9332 190.339 90.2822 190.172 90.6832C190.016 91.0738 189.943 91.4957 189.943 91.954C189.943 92.4123 190.016 92.8446 190.172 93.2456C190.339 93.6363 190.558 93.9852 190.839 94.2873C191.131 94.5789 191.464 94.8081 191.839 94.9748C192.224 95.1414 192.636 95.2248 193.068 95.2248L193.068 95.2248Z" id="Group" fill="#007F5F" fill-rule="evenodd" stroke="none" />
    <path d="M202.596 96.9331L202.596 86.9958L204.721 86.9958L204.721 95.0164L208.013 95.0164L208.013 96.9331L202.596 96.9331Z" id="Group" fill="#007F5F" fill-rule="evenodd" stroke="none" />
    <path d="M216.226 97.1622C215.601 97.1622 215.023 97.0633 214.497 96.8706C213.982 96.6622 213.539 96.381 213.164 96.0164C212.789 95.6414 212.497 95.2039 212.289 94.7039C212.081 94.204 211.977 93.6571 211.977 93.0582L211.977 86.9958L214.122 86.9958L214.122 93.0582C214.122 93.4748 214.211 93.8498 214.393 94.1831C214.57 94.506 214.82 94.7613 215.143 94.9539C215.461 95.1362 215.82 95.2248 216.226 95.2248C216.628 95.2248 216.987 95.1362 217.31 94.9539C217.627 94.7613 217.877 94.506 218.06 94.1831C218.237 93.8498 218.331 93.4696 218.331 93.0373L218.331 86.9958L220.476 86.9958L220.476 93.0582C220.476 93.6571 220.372 94.204 220.164 94.7039C219.956 95.2039 219.653 95.6414 219.268 96.0164C218.893 96.381 218.445 96.6622 217.935 96.8706C217.419 97.0633 216.851 97.1622 216.226 97.1622L216.226 97.1622Z" id="Group" fill="#007F5F" fill-rule="evenodd" stroke="none" />
    <path d="M226.93 96.9331L226.93 88.8916L224.326 88.8916L224.326 86.9958L231.638 86.9958L231.638 88.8916L229.055 88.8916L229.055 96.9331L226.93 96.9331Z" id="Group" fill="#007F5F" fill-rule="evenodd" stroke="none" />
    <path d="M235.626 96.9331L235.626 86.9958L237.751 86.9958L237.751 96.9331L235.626 96.9331Z" id="Group" fill="#007F5F" fill-rule="evenodd" stroke="none" />
    <path d="M247.278 97.183C246.695 97.183 246.132 97.0997 245.591 96.9331C245.059 96.756 244.575 96.5112 244.132 96.2039C243.7 95.8862 243.325 95.5112 243.007 95.0789C242.684 94.6362 242.434 94.1519 242.257 93.6206C242.091 93.0946 242.007 92.5373 242.007 91.954C242.007 91.3603 242.091 90.7978 242.257 90.2666C242.434 89.7405 242.684 89.2614 243.007 88.8291C243.325 88.402 243.7 88.0322 244.132 87.725C244.575 87.4072 245.059 87.1625 245.591 86.9958C246.132 86.8187 246.695 86.725 247.278 86.725C247.872 86.725 248.434 86.8187 248.965 86.9958C249.492 87.1625 249.971 87.4072 250.403 87.725C250.846 88.0322 251.226 88.402 251.549 88.8291C251.866 89.2614 252.111 89.7405 252.278 90.2666C252.455 90.7978 252.549 91.3603 252.549 91.954C252.549 92.5373 252.455 93.0946 252.278 93.6206C252.111 94.1519 251.866 94.6362 251.549 95.0789C251.226 95.5112 250.846 95.8862 250.403 96.2039C249.971 96.5112 249.492 96.756 248.965 96.9331C248.434 97.0997 247.872 97.183 247.278 97.183L247.278 97.183ZM247.278 95.2248C247.721 95.2248 248.132 95.1414 248.507 94.9748C248.882 94.8081 249.215 94.5789 249.507 94.2873C249.799 93.9852 250.018 93.6363 250.174 93.2456C250.34 92.8446 250.424 92.4123 250.424 91.954C250.424 91.4957 250.34 91.0738 250.174 90.6832C250.018 90.2822 249.799 89.9332 249.507 89.6416C249.215 89.3395 248.882 89.0999 248.507 88.9333C248.132 88.7666 247.721 88.6833 247.278 88.6833C246.846 88.6833 246.434 88.7666 246.049 88.9333C245.674 89.0999 245.341 89.3395 245.049 89.6416C244.768 89.9332 244.549 90.2822 244.382 90.6832C244.226 91.0738 244.153 91.4957 244.153 91.954C244.153 92.4123 244.226 92.8446 244.382 93.2456C244.549 93.6363 244.768 93.9852 245.049 94.2873C245.341 94.5789 245.674 94.8081 246.049 94.9748C246.434 95.1414 246.846 95.2248 247.278 95.2248L247.278 95.2248Z" id="Group" fill="#007F5F" fill-rule="evenodd" stroke="none" />
    <path d="M263.639 86.9958L265.764 86.9958L265.764 97.0997L264.16 97.0997L258.91 90.829L258.931 96.933L256.806 96.933L256.806 86.85L258.41 86.85L263.639 93.3498L263.639 86.9958Z" id="Group" fill="#007F5F" fill-rule="evenodd" stroke="none" />
    <path d="M273.195 97.183C272.763 97.183 272.362 97.131 271.987 97.0372C271.622 96.9539 271.289 96.8445 270.987 96.7039C270.68 96.5685 270.388 96.4122 270.112 96.2456L270.112 93.9956C270.331 94.1519 270.57 94.3029 270.82 94.4539C271.07 94.6102 271.326 94.7456 271.591 94.8706C271.867 94.9956 272.138 95.0945 272.404 95.1623C272.68 95.2352 272.945 95.2664 273.195 95.2664C273.445 95.2664 273.659 95.2248 273.841 95.1414C274.034 95.0477 274.185 94.9071 274.299 94.7248C274.424 94.5477 274.487 94.3237 274.487 94.0581C274.487 93.8394 274.409 93.6519 274.258 93.4956C274.117 93.329 273.914 93.1831 273.654 93.0581C273.388 92.9332 273.081 92.8082 272.737 92.6832C272.331 92.5321 271.966 92.3654 271.633 92.1832C271.31 92.0061 271.034 91.803 270.8 91.579C270.56 91.3447 270.383 91.0738 270.258 90.7665C270.133 90.4489 270.07 90.0739 270.07 89.6416C270.07 89.1833 270.154 88.7822 270.32 88.4333C270.487 88.0739 270.721 87.7666 271.029 87.5166C271.331 87.2666 271.685 87.0739 272.091 86.9333C272.508 86.7979 272.956 86.725 273.445 86.725C273.904 86.725 274.346 86.7875 274.779 86.9125C275.206 87.027 275.638 87.1937 276.07 87.4124L276.07 89.5374C275.831 89.3603 275.56 89.1989 275.258 89.0583C274.966 88.9229 274.664 88.8187 274.362 88.7458C274.055 88.6624 273.763 88.6208 273.487 88.6208C273.055 88.6208 272.727 88.7249 272.508 88.9333C272.284 89.1416 272.174 89.402 272.174 89.7041C272.174 89.9436 272.237 90.1364 272.362 90.2874C272.487 90.4436 272.664 90.5739 272.904 90.6832C273.154 90.7978 273.43 90.9124 273.737 91.0374C274.122 91.1624 274.492 91.3186 274.841 91.4957C275.2 91.678 275.513 91.8863 275.779 92.1207C276.039 92.3603 276.242 92.6363 276.383 92.954C276.534 93.2769 276.612 93.6415 276.612 94.0581C276.612 94.5737 276.518 95.0269 276.341 95.4123C276.174 95.8029 275.935 96.131 275.633 96.3914C275.325 96.657 274.966 96.8497 274.549 96.9747C274.133 97.1101 273.68 97.183 273.195 97.183L273.195 97.183Z" id="Group" fill="#007F5F" fill-rule="evenodd" stroke="none" />
  </g>
</svg>