<?xml version="1.0" encoding="utf-8"?>
<svg width="1326px" height="574px" viewBox="0 0 1326 574" version="1.1" xmlns:xlink="http://www.w3.org/1999/xlink" xmlns="http://www.w3.org/2000/svg">
  <defs>
    <linearGradient gradientUnits="objectBoundingBox" x1="1.8944981" y1="-1.4297423" x2="0.49377644" y2="0.784987" id="gradient_1">
      <stop offset="0%" stop-color="#FFFFFF" />
      <stop offset="100%" stop-color="#007F5F" />
    </linearGradient>
    <linearGradient gradientUnits="objectBoundingBox" x1="-6.6308794" y1="-7.0740604" x2="1.9283383" y2="2.0484664" id="gradient_2">
      <stop offset="0%" stop-color="#FAFAFB" />
      <stop offset="100%" stop-color="#007F5F" />
    </linearGradient>
    <filter filterUnits="userSpaceOnUse" color-interpolation-filters="sRGB" id="filter_1">
      <feFlood flood-opacity="0" result="BackgroundImageFix" />
      <feBlend mode="normal" in="SourceGraphic" in2="BackgroundImageFix" result="shape" />
      <feColorMatrix in="SourceAlpha" type="matrix" values="0 0 0 0 0 0 0 0 0 0 0 0 0 0 0 0 0 0 128 0" result="hardAlpha" />
      <feOffset dx="1" dy="7" />
      <feGaussianBlur stdDeviation="5" />
      <feComposite in2="hardAlpha" operator="arithmetic" k2="-1" k3="1" />
      <feColorMatrix type="matrix" values="0 0 0 0 1 0 0 0 0 1 0 0 0 0 1 0 0 0 0.49803922 0" />
      <feBlend mode="normal" in2="shape" result="effect0_innerShadow" />
    </filter>
    <path d="M1326 0L1326 0L1326 574L0 574L0 0L1326 0Z" id="path_1" />
    <path d="M1181.26 0L1181.26 0L1181.26 462L0 462L0 0L1181.26 0Z" id="path_2" />
    <path d="M37.2122 137.444C37.2122 137.444 10.4151 139.788 10.4151 139.788C4.66302 74.0415 53.0754 16.0996 118.547 10.3715C184.019 4.64351 241.757 53.2984 247.509 119.045C253.262 184.792 204.849 242.734 139.377 248.462C73.9056 254.19 16.1672 205.535 10.4151 139.788C10.4151 139.788 37.2122 137.444 37.2122 137.444C41.664 188.329 86.3509 225.986 137.023 221.552C187.695 217.119 225.164 172.275 220.712 121.39C216.261 70.5046 171.574 32.848 120.901 37.2812C70.2293 41.7144 32.7603 86.5588 37.2122 137.444Z" id="path_3" />
    <clipPath id="clip_1">
      <use xlink:href="#path_1" clip-rule="evenodd" fill-rule="evenodd" />
    </clipPath>
    <clipPath id="clip_2">
      <use xlink:href="#path_2" clip-rule="evenodd" fill-rule="evenodd" />
    </clipPath>
  </defs>
  <g id="competence" clip-path="url(#clip_1)">
    <path d="M1326 0L1326 0L1326 574L0 574L0 0L1326 0Z" id="competence" fill="#FFFFFF" stroke="none" />
    <path d="M0 0L322.681 0L322.681 0L1326 0L1326 574L0 574L0 0Z" id="Rectangle" fill="url(#gradient_1)" fill-rule="evenodd" stroke="none" />
    <path d="M-52.5 -43.482L-98 -12.9816C-98 -12.9816 -10.9994 -271.982 -10.9994 -271.982C-7.03985 -274.751 -79.9532 28.9879 11 8.82138C101.953 -11.3451 74.8076 16.7548 138.5 8.82138C209.226 -12.319 218.754 11.6614 302.5 16.4117C386.246 21.1619 487.318 7.74152 542.595 3.14005C607.748 -2.07825 691.321 12.8085 771.03 16.4117C852.996 18.3468 901.706 0.230682 971 8.82138C1075.97 14.5214 1113.5 3.93378 1187.22 16.4117C1256.13 24.067 1291.19 -14.6285 1335.33 16.4117C1379.47 47.4499 1354.14 214.123 1360.43 201.32C1361.73 198.669 1363.01 22.2215 1372.77 8.82135L1383.01 -11.0158L650.539 -12.7848C650.539 -12.7848 814.18 -13.2277 659.049 -12.7848C503.909 -12.3432 -10.9992 -23.5688 -10.9992 -23.5688L-52.5 -43.482Z" id="Vecteur" fill="#FAFAFB" fill-rule="evenodd" stroke="none" />
    <g id="Cadre" clip-path="url(#clip_2)" transform="translate(0 128)">
      <path d="M1181.26 0L1181.26 0L1181.26 462L0 462L0 0L1181.26 0Z" id="Cadre" fill="none" stroke="none" />
      <g id="Groupes-6-Copier" transform="translate(890.0792 288)">
        <path d="M68.9226 115.732C68.9226 115.732 69.4275 130.191 69.4275 130.191C33.5509 131.443 3.46712 103.823 2.23356 68.4979C1 33.1733 29.0838 3.5213 64.9604 2.26846C100.837 1.01563 130.921 28.6363 132.154 63.961C133.388 99.2857 105.304 128.938 69.4275 130.191C69.4275 130.191 68.9226 115.732 68.9226 115.732C96.6895 114.763 118.425 91.8135 117.47 64.4738C116.516 37.1341 93.2322 15.7569 65.4653 16.7266C37.6984 17.6962 15.9629 40.6455 16.9176 67.9852C17.8723 95.3249 41.1558 116.702 68.9226 115.732Z" id="Ovale-Copier-3" fill="url(#gradient_2)" fill-rule="evenodd" stroke="none" />
      </g>
      <path d="M836.601 304.342L834.518 311.886L829.316 307.202L836.601 304.342L836.601 304.342Z" id="Triangle-Copier" fill="#000000" fill-rule="evenodd" stroke="none" />
      <path d="M592.468 72.6453L588.387 79.3229L584.677 73.3866L592.468 72.6453L592.468 72.6453Z" id="Triangle-Copier-Copier" fill="#000000" fill-rule="evenodd" stroke="none" />
      <path d="M58.6713 174.668L62 177.086L60.7286 181L56.614 181L55.3426 177.086L58.6713 174.668L58.6713 174.668Z" id="Polygone" fill="#CCCCCC" fill-rule="evenodd" stroke="none" />
      <path d="M847.742 -102L840.668 -102L840.668 -95L847.742 -95L847.742 -102L847.742 -102Z" id="Rectangle-2" fill="#EEEEEE" fill-rule="evenodd" stroke="none" />
      <path d="M373.822 295.698L378 302.335L381.644 296.27L373.822 295.698L373.822 295.698Z" id="Triangle-Copier-2" fill="#FFFFFF" fill-rule="evenodd" stroke="none" />
      <path d="M949.63 46.668L946.27 49.086L947.55 53L951.71 53L953 49.086L949.63 46.668L949.63 46.668Z" id="Polygone-Copier-2" fill="#FFFFFF" fill-rule="evenodd" stroke="none" />
    </g>
    <g id="Groupes-3-Copier-4" transform="matrix(0 1 -1 0 704.0906 163.07544)">
      <g id="Groupes-2" transform="translate(375.8136 629.0906)">
        <path d="M6.10352e-05 1.55556C6.10352e-05 0.696446 0.671637 0 1.50007 0C2.3285 0 3.00008 0.696446 3.00008 1.55556C3.00008 2.41466 2.3285 3.11111 1.50007 3.11111C0.671637 3.11111 6.10352e-05 2.41466 6.10352e-05 1.55556Z" id="Ovale" fill="#FAFAFB" fill-rule="evenodd" stroke="none" />
        <path d="M0 9.33339C0 8.47428 0.671576 7.77783 1.50001 7.77783C2.32844 7.77783 3.00002 8.47428 3.00002 9.33339C3.00002 10.1925 2.32844 10.8889 1.50001 10.8889C0.671576 10.8889 0 10.1925 0 9.33339Z" id="Ovale-Copier" fill="#FAFAFB" fill-rule="evenodd" stroke="none" />
        <path d="M6.10352e-05 17.1111C6.10352e-05 16.252 0.671637 15.5555 1.50007 15.5555C2.3285 15.5555 3.00008 16.252 3.00008 17.1111C3.00008 17.9702 2.3285 18.6667 1.50007 18.6667C0.671637 18.6667 6.10352e-05 17.9702 6.10352e-05 17.1111Z" id="Ovale-Copier-2" fill="#FAFAFB" fill-rule="evenodd" stroke="none" />
        <path d="M0.000183105 24.8889C0.000183105 24.0298 0.671759 23.3333 1.50019 23.3333C2.32862 23.3333 3.0002 24.0298 3.0002 24.8889C3.0002 25.748 2.32862 26.4444 1.50019 26.4444C0.671759 26.4444 0.000183105 25.748 0.000183105 24.8889Z" id="Ovale-Copier-3" fill="#FAFAFB" fill-rule="evenodd" stroke="none" />
        <path d="M6.10352e-05 32.6666C6.10352e-05 31.8075 0.671637 31.1111 1.50007 31.1111C2.3285 31.1111 3.00008 31.8075 3.00008 32.6666C3.00008 33.5258 2.3285 34.2222 1.50007 34.2222C0.671637 34.2222 6.10352e-05 33.5258 6.10352e-05 32.6666Z" id="Ovale-Copier-4" fill="#FAFAFB" fill-rule="evenodd" stroke="none" />
        <path d="M0.000183105 40.4445C0.000183105 39.5854 0.671759 38.8889 1.50019 38.8889C2.32862 38.8889 3.0002 39.5854 3.0002 40.4445C3.0002 41.3036 2.32862 42 1.50019 42C0.671759 42 0.000183105 41.3036 0.000183105 40.4445Z" id="Ovale-Copier-5" fill="#FAFAFB" fill-rule="evenodd" stroke="none" />
        <path d="M7.50012 1.55556C7.50012 0.696446 8.1717 0 9.00013 0C9.82856 0 10.5001 0.696446 10.5001 1.55556C10.5001 2.41466 9.82856 3.11111 9.00013 3.11111C8.1717 3.11111 7.50012 2.41466 7.50012 1.55556Z" id="Ovale-Copier-6" fill="#FAFAFB" fill-rule="evenodd" stroke="none" />
        <path d="M7.50006 9.33339C7.50006 8.47428 8.17164 7.77783 9.00007 7.77783C9.8285 7.77783 10.5001 8.47428 10.5001 9.33339C10.5001 10.1925 9.8285 10.8889 9.00007 10.8889C8.17164 10.8889 7.50006 10.1925 7.50006 9.33339Z" id="Ovale-Copier-7" fill="#FAFAFB" fill-rule="evenodd" stroke="none" />
        <path d="M7.50012 17.1111C7.50012 16.252 8.1717 15.5555 9.00013 15.5555C9.82856 15.5555 10.5001 16.252 10.5001 17.1111C10.5001 17.9702 9.82856 18.6667 9.00013 18.6667C8.1717 18.6667 7.50012 17.9702 7.50012 17.1111Z" id="Ovale-Copier-8" fill="#FAFAFB" fill-rule="evenodd" stroke="none" />
        <path d="M7.50024 24.8889C7.50024 24.0298 8.17182 23.3333 9.00025 23.3333C9.82868 23.3333 10.5003 24.0298 10.5003 24.8889C10.5003 25.748 9.82868 26.4444 9.00025 26.4444C8.17182 26.4444 7.50024 25.748 7.50024 24.8889Z" id="Ovale-Copier-9" fill="#FAFAFB" fill-rule="evenodd" stroke="none" />
        <path d="M7.50012 32.6666C7.50012 31.8075 8.1717 31.1111 9.00013 31.1111C9.82856 31.1111 10.5001 31.8075 10.5001 32.6666C10.5001 33.5258 9.82856 34.2222 9.00013 34.2222C8.1717 34.2222 7.50012 33.5258 7.50012 32.6666Z" id="Ovale-Copier-10" fill="#FAFAFB" fill-rule="evenodd" stroke="none" />
        <path d="M7.50024 40.4445C7.50024 39.5854 8.17182 38.8889 9.00025 38.8889C9.82868 38.8889 10.5003 39.5854 10.5003 40.4445C10.5003 41.3036 9.82868 42 9.00025 42C8.17182 42 7.50024 41.3036 7.50024 40.4445Z" id="Ovale-Copier-11" fill="#FAFAFB" fill-rule="evenodd" stroke="none" />
        <path d="M15.0003 1.55556C15.0003 0.696446 15.6719 0 16.5003 0C17.3287 0 18.0003 0.696446 18.0003 1.55556C18.0003 2.41466 17.3287 3.11111 16.5003 3.11111C15.6719 3.11111 15.0003 2.41466 15.0003 1.55556Z" id="Ovale-Copier-12" fill="#FAFAFB" fill-rule="evenodd" stroke="none" />
        <path d="M15.0002 9.33339C15.0002 8.47428 15.6718 7.77783 16.5002 7.77783C17.3286 7.77783 18.0002 8.47428 18.0002 9.33339C18.0002 10.1925 17.3286 10.8889 16.5002 10.8889C15.6718 10.8889 15.0002 10.1925 15.0002 9.33339Z" id="Ovale-Copier-13" fill="#FAFAFB" fill-rule="evenodd" stroke="none" />
        <path d="M15.0003 17.1111C15.0003 16.252 15.6719 15.5555 16.5003 15.5555C17.3287 15.5555 18.0003 16.252 18.0003 17.1111C18.0003 17.9702 17.3287 18.6667 16.5003 18.6667C15.6719 18.6667 15.0003 17.9702 15.0003 17.1111Z" id="Ovale-Copier-14" fill="#FAFAFB" fill-rule="evenodd" stroke="none" />
        <path d="M15.0004 24.8889C15.0004 24.0298 15.6719 23.3333 16.5004 23.3333C17.3288 23.3333 18.0004 24.0298 18.0004 24.8889C18.0004 25.748 17.3288 26.4444 16.5004 26.4444C15.6719 26.4444 15.0004 25.748 15.0004 24.8889Z" id="Ovale-Copier-15" fill="#FAFAFB" fill-rule="evenodd" stroke="none" />
        <path d="M15.0003 32.6666C15.0003 31.8075 15.6719 31.1111 16.5003 31.1111C17.3287 31.1111 18.0003 31.8075 18.0003 32.6666C18.0003 33.5258 17.3287 34.2222 16.5003 34.2222C15.6719 34.2222 15.0003 33.5258 15.0003 32.6666Z" id="Ovale-Copier-16" fill="#FAFAFB" fill-rule="evenodd" stroke="none" />
        <path d="M15 40.5554C15 39.6963 15.6716 38.9999 16.5 38.9999C17.3284 38.9999 18 39.6963 18 40.5554C18 41.4145 17.3284 42.111 16.5 42.111C15.6716 42.111 15 41.4145 15 40.5554Z" id="Ovale-Copier-17" fill="#FAFAFB" fill-rule="evenodd" stroke="none" />
      </g>
      <g id="Ovale-Copier-3">
        <use stroke="none" fill="#1E9577" xlink:href="#path_3" fill-rule="evenodd" filter="url(#filter_1)" />
      </g>
    </g>
    <path d="M29.671 54.668L33 57.086L31.728 61L27.614 61L26.342 57.086L29.671 54.668L29.671 54.668Z" id="Polygone-Copier" fill="#000000" fill-rule="evenodd" stroke="none" />
    <path d="M1122.01 39.0407L1122.38 39.7829Q1122.41 39.8526 1122.46 39.912Q1122.51 39.9714 1122.58 40.0171Q1122.64 40.0628 1122.71 40.0921Q1122.78 40.1214 1122.86 40.1325L1123.68 40.2516Q1123.72 40.2573 1123.76 40.2684Q1123.8 40.2796 1123.83 40.2959Q1123.87 40.3123 1123.9 40.3335Q1123.94 40.3548 1123.97 40.3805Q1124 40.4062 1124.02 40.4359Q1124.05 40.4655 1124.07 40.4986Q1124.1 40.5317 1124.11 40.5676Q1124.13 40.6034 1124.14 40.6414Q1124.16 40.6793 1124.16 40.7186Q1124.17 40.7579 1124.17 40.7977Q1124.17 40.8376 1124.17 40.8772Q1124.16 40.9169 1124.15 40.9556Q1124.14 40.9943 1124.13 41.0314Q1124.11 41.0684 1124.09 41.103Q1124.08 41.1376 1124.05 41.1691Q1124.03 41.2007 1124 41.2285L1123.41 41.8062Q1123.35 41.8605 1123.31 41.9265Q1123.27 41.9925 1123.24 42.0664Q1123.22 42.1403 1123.21 42.2179Q1123.21 42.2954 1123.22 42.372L1123.36 43.1877Q1123.37 43.227 1123.37 43.2669Q1123.37 43.3068 1123.37 43.3464Q1123.36 43.3861 1123.35 43.4247Q1123.34 43.4634 1123.33 43.5004Q1123.31 43.5373 1123.29 43.5718Q1123.27 43.6063 1123.25 43.6377Q1123.22 43.6691 1123.19 43.6968Q1123.17 43.7245 1123.13 43.7479Q1123.1 43.7714 1123.07 43.7901Q1123.03 43.8089 1122.99 43.8225Q1122.96 43.8362 1122.92 43.8446Q1122.88 43.8529 1122.84 43.8558Q1122.8 43.8587 1122.76 43.856Q1122.72 43.8534 1122.68 43.8452Q1122.64 43.8371 1122.6 43.8236Q1122.57 43.8101 1122.53 43.7915L1121.8 43.4064Q1121.73 43.3702 1121.65 43.3516Q1121.58 43.333 1121.5 43.333Q1121.42 43.333 1121.35 43.3516Q1121.27 43.3702 1121.2 43.4064L1120.47 43.7915Q1120.43 43.8101 1120.4 43.8236Q1120.36 43.8371 1120.32 43.8452Q1120.28 43.8534 1120.24 43.856Q1120.2 43.8587 1120.16 43.8558Q1120.12 43.8529 1120.08 43.8446Q1120.04 43.8362 1120.01 43.8225Q1119.97 43.8089 1119.93 43.7901Q1119.9 43.7714 1119.87 43.7479Q1119.83 43.7245 1119.81 43.6968Q1119.78 43.6691 1119.75 43.6377Q1119.73 43.6063 1119.71 43.5718Q1119.69 43.5373 1119.67 43.5004Q1119.66 43.4634 1119.65 43.4247Q1119.64 43.3861 1119.63 43.3464Q1119.63 43.3068 1119.63 43.2669Q1119.63 43.227 1119.64 43.1877L1119.78 42.372Q1119.79 42.2954 1119.79 42.2179Q1119.78 42.1403 1119.76 42.0664Q1119.73 41.9925 1119.69 41.9265Q1119.65 41.8605 1119.59 41.8062L1119 41.2285Q1118.97 41.2007 1118.95 41.1691Q1118.92 41.1376 1118.91 41.103Q1118.89 41.0684 1118.87 41.0314Q1118.86 40.9943 1118.85 40.9556Q1118.84 40.9169 1118.83 40.8772Q1118.83 40.8376 1118.83 40.7977Q1118.83 40.7578 1118.84 40.7186Q1118.85 40.6793 1118.86 40.6414Q1118.87 40.6034 1118.89 40.5676Q1118.9 40.5317 1118.93 40.4986Q1118.95 40.4655 1118.98 40.4359Q1119 40.4062 1119.03 40.3805Q1119.06 40.3548 1119.1 40.3335Q1119.13 40.3123 1119.17 40.2959Q1119.2 40.2796 1119.24 40.2684Q1119.28 40.2573 1119.32 40.2516L1120.14 40.1325Q1120.22 40.1214 1120.29 40.0921Q1120.36 40.0628 1120.42 40.0171Q1120.49 39.9714 1120.54 39.912Q1120.59 39.8526 1120.62 39.7829L1120.99 39.0407Q1121 39.0049 1121.03 38.972Q1121.05 38.939 1121.08 38.9094Q1121.1 38.8799 1121.13 38.8543Q1121.16 38.8288 1121.2 38.8077Q1121.23 38.7867 1121.27 38.7705Q1121.3 38.7544 1121.34 38.7434Q1121.38 38.7325 1121.42 38.7269Q1121.46 38.7214 1121.5 38.7214Q1121.54 38.7214 1121.58 38.7269Q1121.62 38.7325 1121.66 38.7434Q1121.7 38.7544 1121.73 38.7705Q1121.77 38.7867 1121.8 38.8077Q1121.84 38.8288 1121.87 38.8543Q1121.9 38.8799 1121.92 38.9094Q1121.95 38.939 1121.97 38.972Q1122 39.0049 1122.01 39.0407Z" id="Étoile-Copier" fill="#000000" fill-rule="evenodd" stroke="none" />
    <path d="M541.014 32.0407L541.38 32.7829Q541.414 32.8526 541.464 32.912Q541.514 32.9714 541.577 33.0171Q541.64 33.0628 541.712 33.0921Q541.784 33.1214 541.861 33.1325L542.68 33.2516Q542.72 33.2573 542.758 33.2684Q542.796 33.2796 542.833 33.2959Q542.869 33.3123 542.903 33.3335Q542.937 33.3548 542.967 33.3805Q542.997 33.4062 543.024 33.4359Q543.051 33.4655 543.073 33.4986Q543.095 33.5317 543.113 33.5676Q543.13 33.6034 543.143 33.6414Q543.155 33.6793 543.162 33.7186Q543.169 33.7578 543.17 33.7977Q543.172 33.8376 543.168 33.8772Q543.164 33.9169 543.154 33.9556Q543.144 33.9943 543.13 34.0314Q543.115 34.0684 543.095 34.103Q543.075 34.1376 543.051 34.1691Q543.026 34.2007 542.998 34.2285L542.405 34.8062Q542.349 34.8605 542.308 34.9265Q542.267 34.9925 542.243 35.0664Q542.219 35.1403 542.214 35.2179Q542.208 35.2954 542.221 35.372L542.361 36.1877Q542.368 36.227 542.369 36.2669Q542.37 36.3068 542.366 36.3464Q542.362 36.3861 542.352 36.4247Q542.342 36.4634 542.327 36.5004Q542.312 36.5373 542.292 36.5718Q542.272 36.6063 542.247 36.6377Q542.223 36.6691 542.194 36.6968Q542.165 36.7245 542.133 36.7479Q542.101 36.7714 542.066 36.7901Q542.031 36.8089 541.993 36.8225Q541.956 36.8362 541.917 36.8446Q541.878 36.8529 541.838 36.8558Q541.798 36.8587 541.758 36.856Q541.719 36.8534 541.679 36.8452Q541.64 36.8371 541.603 36.8236Q541.565 36.8101 541.53 36.7915L540.797 36.4064Q540.729 36.3702 540.653 36.3516Q540.578 36.333 540.5 36.333Q540.422 36.333 540.347 36.3516Q540.271 36.3702 540.203 36.4064L539.47 36.7915Q539.435 36.8101 539.397 36.8236Q539.36 36.8371 539.32 36.8452Q539.281 36.8534 539.242 36.856Q539.202 36.8587 539.162 36.8558Q539.122 36.8529 539.083 36.8446Q539.044 36.8362 539.007 36.8225Q538.969 36.8089 538.934 36.7901Q538.899 36.7714 538.867 36.7479Q538.834 36.7245 538.806 36.6968Q538.777 36.6691 538.753 36.6377Q538.728 36.6063 538.708 36.5718Q538.688 36.5373 538.673 36.5004Q538.658 36.4634 538.648 36.4247Q538.638 36.3861 538.634 36.3464Q538.63 36.3068 538.631 36.2669Q538.632 36.227 538.639 36.1877L538.779 35.372Q538.792 35.2954 538.786 35.2179Q538.781 35.1403 538.757 35.0664Q538.733 34.9925 538.692 34.9265Q538.651 34.8605 538.595 34.8062L538.002 34.2285Q537.974 34.2007 537.949 34.1691Q537.925 34.1376 537.905 34.103Q537.885 34.0684 537.87 34.0314Q537.856 33.9943 537.846 33.9556Q537.836 33.9169 537.832 33.8772Q537.828 33.8376 537.83 33.7977Q537.831 33.7579 537.838 33.7186Q537.845 33.6793 537.857 33.6414Q537.87 33.6034 537.887 33.5676Q537.905 33.5317 537.927 33.4986Q537.949 33.4655 537.976 33.4359Q538.002 33.4062 538.033 33.3805Q538.063 33.3548 538.097 33.3335Q538.131 33.3123 538.167 33.2959Q538.204 33.2796 538.242 33.2684Q538.28 33.2573 538.32 33.2516L539.139 33.1325Q539.216 33.1214 539.288 33.0921Q539.36 33.0628 539.423 33.0171Q539.486 32.9714 539.536 32.912Q539.586 32.8526 539.62 32.7829L539.986 32.0407Q540.004 32.0049 540.026 31.9719Q540.049 31.939 540.076 31.9094Q540.103 31.8799 540.133 31.8543Q540.164 31.8288 540.198 31.8077Q540.232 31.7867 540.268 31.7705Q540.304 31.7544 540.343 31.7434Q540.381 31.7325 540.421 31.7269Q540.46 31.7214 540.5 31.7214Q540.54 31.7214 540.579 31.7269Q540.619 31.7325 540.657 31.7434Q540.695 31.7544 540.732 31.7705Q540.768 31.7867 540.802 31.8077Q540.836 31.8288 540.867 31.8543Q540.897 31.8799 540.924 31.9094Q540.951 31.939 540.974 31.9719Q540.996 32.0049 541.014 32.0407Z" id="Étoile" fill="#FFFFFF" fill-rule="evenodd" stroke="none" />
    <g id="Groupes-3-Copier-3" transform="translate(1265.9995 219.99988)">
      <g id="Groupes-2">
        <path d="M0.00012207 3.2963C0.00012207 1.4758 1.49248 0 3.3334 0C5.17432 0 6.66668 1.4758 6.66668 3.2963C6.66668 5.11679 5.17432 6.59259 3.3334 6.59259C1.49248 6.59259 0.00012207 5.11679 0.00012207 3.2963Z" id="Ovale" fill="#070707" fill-rule="evenodd" stroke="none" />
        <path d="M0 19.7778C0 17.9573 1.49236 16.4815 3.33328 16.4815C5.17419 16.4815 6.66655 17.9573 6.66655 19.7778C6.66655 21.5983 5.17419 23.0741 3.33328 23.0741C1.49236 23.0741 0 21.5983 0 19.7778Z" id="Ovale-Copier" fill="#070707" fill-rule="evenodd" stroke="none" />
        <path d="M0.00012207 36.2592C0.00012207 34.4388 1.49248 32.963 3.3334 32.963C5.17432 32.963 6.66668 34.4388 6.66668 36.2592C6.66668 38.0797 5.17432 39.5555 3.3334 39.5555C1.49248 39.5555 0.00012207 38.0797 0.00012207 36.2592Z" id="Ovale-Copier-2" fill="#070707" fill-rule="evenodd" stroke="none" />
        <path d="M0.00036621 52.7408C0.00036621 50.9203 1.49273 49.4445 3.33364 49.4445C5.17456 49.4445 6.66692 50.9203 6.66692 52.7408C6.66692 54.5612 5.17456 56.037 3.33364 56.037C1.49273 56.037 0.00036621 54.5612 0.00036621 52.7408Z" id="Ovale-Copier-3" fill="#070707" fill-rule="evenodd" stroke="none" />
        <path d="M0.00012207 69.2222C0.00012207 67.4017 1.49248 65.9259 3.3334 65.9259C5.17432 65.9259 6.66668 67.4017 6.66668 69.2222C6.66668 71.0427 5.17432 72.5185 3.3334 72.5185C1.49248 72.5185 0.00012207 71.0427 0.00012207 69.2222Z" id="Ovale-Copier-4" fill="#070707" fill-rule="evenodd" stroke="none" />
        <path d="M0.00036621 85.7037C0.00036621 83.8832 1.49273 82.4074 3.33364 82.4074C5.17456 82.4074 6.66692 83.8832 6.66692 85.7037C6.66692 87.5242 5.17456 89 3.33364 89C1.49273 89 0.00036621 87.5242 0.00036621 85.7037Z" id="Ovale-Copier-5" fill="#070707" fill-rule="evenodd" stroke="none" />
        <path d="M16.6666 3.2963C16.6666 1.4758 18.159 0 19.9999 0C21.8408 0 23.3332 1.4758 23.3332 3.2963C23.3332 5.11679 21.8408 6.59259 19.9999 6.59259C18.159 6.59259 16.6666 5.11679 16.6666 3.2963Z" id="Ovale-Copier-6" fill="#070707" fill-rule="evenodd" stroke="none" />
        <path d="M16.6665 19.7778C16.6665 17.9573 18.1588 16.4815 19.9998 16.4815C21.8407 16.4815 23.333 17.9573 23.333 19.7778C23.333 21.5983 21.8407 23.0741 19.9998 23.0741C18.1588 23.0741 16.6665 21.5983 16.6665 19.7778Z" id="Ovale-Copier-7" fill="#070707" fill-rule="evenodd" stroke="none" />
        <path d="M16.6666 36.2592C16.6666 34.4388 18.159 32.963 19.9999 32.963C21.8408 32.963 23.3332 34.4388 23.3332 36.2592C23.3332 38.0797 21.8408 39.5555 19.9999 39.5555C18.159 39.5555 16.6666 38.0797 16.6666 36.2592Z" id="Ovale-Copier-8" fill="#070707" fill-rule="evenodd" stroke="none" />
        <path d="M16.6668 52.7408C16.6668 50.9203 18.1592 49.4445 20.0001 49.4445C21.841 49.4445 23.3334 50.9203 23.3334 52.7408C23.3334 54.5612 21.841 56.037 20.0001 56.037C18.1592 56.037 16.6668 54.5612 16.6668 52.7408Z" id="Ovale-Copier-9" fill="#070707" fill-rule="evenodd" stroke="none" />
        <path d="M16.6666 69.2222C16.6666 67.4017 18.159 65.9259 19.9999 65.9259C21.8408 65.9259 23.3332 67.4017 23.3332 69.2222C23.3332 71.0427 21.8408 72.5185 19.9999 72.5185C18.159 72.5185 16.6666 71.0427 16.6666 69.2222Z" id="Ovale-Copier-10" fill="#070707" fill-rule="evenodd" stroke="none" />
        <path d="M16.6668 85.7037C16.6668 83.8832 18.1592 82.4074 20.0001 82.4074C21.841 82.4074 23.3334 83.8832 23.3334 85.7037C23.3334 87.5242 21.841 89 20.0001 89C18.1592 89 16.6668 87.5242 16.6668 85.7037Z" id="Ovale-Copier-11" fill="#070707" fill-rule="evenodd" stroke="none" />
        <path d="M33.3332 3.2963C33.3332 1.4758 34.8256 0 36.6665 0C38.5074 0 39.9998 1.4758 39.9998 3.2963C39.9998 5.11679 38.5074 6.59259 36.6665 6.59259C34.8256 6.59259 33.3332 5.11679 33.3332 3.2963Z" id="Ovale-Copier-12" fill="#070707" fill-rule="evenodd" stroke="none" />
        <path d="M33.333 19.7778C33.333 17.9573 34.8253 16.4815 36.6662 16.4815C38.5072 16.4815 39.9995 17.9573 39.9995 19.7778C39.9995 21.5983 38.5072 23.0741 36.6662 23.0741C34.8253 23.0741 33.333 21.5983 33.333 19.7778Z" id="Ovale-Copier-13" fill="#070707" fill-rule="evenodd" stroke="none" />
        <path d="M33.3332 36.2592C33.3332 34.4388 34.8256 32.963 36.6665 32.963C38.5074 32.963 39.9998 34.4388 39.9998 36.2592C39.9998 38.0797 38.5074 39.5555 36.6665 39.5555C34.8256 39.5555 33.3332 38.0797 33.3332 36.2592Z" id="Ovale-Copier-14" fill="#070707" fill-rule="evenodd" stroke="none" />
        <path d="M33.3334 52.7408C33.3334 50.9203 34.8258 49.4445 36.6667 49.4445C38.5076 49.4445 40 50.9203 40 52.7408C40 54.5612 38.5076 56.037 36.6667 56.037C34.8258 56.037 33.3334 54.5612 33.3334 52.7408Z" id="Ovale-Copier-15" fill="#070707" fill-rule="evenodd" stroke="none" />
        <path d="M33.3332 69.2222C33.3332 67.4017 34.8256 65.9259 36.6665 65.9259C38.5074 65.9259 39.9998 67.4017 39.9998 69.2222C39.9998 71.0427 38.5074 72.5185 36.6665 72.5185C34.8256 72.5185 33.3332 71.0427 33.3332 69.2222Z" id="Ovale-Copier-16" fill="#070707" fill-rule="evenodd" stroke="none" />
      </g>
      <path d="M33.3334 85.7037C33.3334 83.8832 34.8258 82.4074 36.6667 82.4074C38.5076 82.4074 40 83.8832 40 85.7037C40 87.5242 38.5076 89 36.6667 89C34.8258 89 33.3334 87.5242 33.3334 85.7037Z" id="Ovale-Copier-17" fill="#070707" fill-rule="evenodd" stroke="none" />
    </g>
    <g id="Groupes-6" transform="translate(64.07919 70)">
      <path d="M68.9226 115.732C68.9226 115.732 69.4275 130.191 69.4275 130.191C33.5509 131.443 3.46712 103.823 2.23356 68.4979C1 33.1733 29.0838 3.5213 64.9604 2.26846C100.837 1.01563 130.921 28.6363 132.154 63.961C133.388 99.2857 105.304 128.938 69.4275 130.191C69.4275 130.191 68.9226 115.732 68.9226 115.732C96.6895 114.763 118.425 91.8135 117.47 64.4738C116.516 37.1341 93.2322 15.7569 65.4653 16.7266C37.6984 17.6962 15.9629 40.6455 16.9176 67.9852C17.8723 95.3249 41.1558 116.702 68.9226 115.732Z" id="Ovale-Copier-3" fill="url(#gradient_2)" fill-rule="evenodd" stroke="none" />
    </g>
    <path d="M280 156L272.93 156L272.93 163L280 163L280 156L280 156Z" id="Rectangle-Copier-2-Copier" fill="#FFFFFF" fill-rule="evenodd" stroke="none" />
    <path d="M806.07 104L799 104L799 111L806.07 111L806.07 104L806.07 104Z" id="Rectangle-Copier-2" fill="#000000" fill-rule="evenodd" stroke="none" />
    <path d="M1195.64 472.668L1192.27 475.086L1193.56 479L1197.72 479L1199 475.086L1195.64 472.668L1195.64 472.668Z" id="Polygone-2" fill="#CCCCCC" fill-rule="evenodd" stroke="none" />
  </g>
</svg>